<?xml version="1.0" encoding="UTF-8"?>
<svg id="Layer_2" data-name="Layer 2" xmlns="http://www.w3.org/2000/svg" viewBox="0 0 186.6 186.5">
  <defs>
    <style>
      .cls-1 {
        fill: #4fb848;
      }

      .cls-2 {
        fill: #fff;
      }
    </style>
  </defs>
  <g id="Layer_1-2" data-name="Layer 1">
    <g>
      <rect class="cls-2" width="186.6" height="186.5" rx="7.62" ry="7.62"/>
      <g>
        <g>
          <path d="M40.21,31.14c0,5.21-4.1,9.31-9.21,9.31h-13.83c-4.92,0-9.15-3.98-9.14-8.92l.03-14.39c.01-4.76,4.39-8.52,9.11-8.52h13.82c5.17,0,9.22,4.21,9.22,9.34v13.17ZM30.58,35.87c2.96,0,4.99-2.09,4.99-4.92l-.02-12.98c0-2.59-1.91-4.75-4.55-4.75h-13.81c-2.17,0-4.45,1.69-4.46,3.93l-.07,14.08c-.01,2.72,2.15,4.62,4.8,4.62h13.11Z"/>
          <path d="M31.76,177.38c-5.12.28-9.65.08-14.58.08s-9-3.9-9.12-8.7-.12-9.51,0-14.38,3.8-8.12,8.27-8.78c5.29.06,10.23-.25,15.53.1,4.6.3,8.25,4.35,8.32,8.93.07,4.86.14,9.29-.03,14.16-.16,4.39-3.82,8.35-8.39,8.6ZM31.32,172.81c2.69-.15,4.26-2.48,4.25-4.9l-.02-12.97c0-2.59-1.79-4.47-4.36-4.77l-14.24.08c-2.59.01-4.32,2.2-4.31,4.67l.07,13.8c.01,2.52,2.34,4.17,4.75,4.18,4.64.01,9.12.17,13.85-.09Z"/>
          <path d="M178.5,31.99c-.17,4.94-4.58,8.47-9.18,8.47h-13.62c-4.6,0-8.99-3.58-9.16-8.38-.19-5.14-.23-10.08.02-15.2s4.97-8.33,9.72-8.3l13.6.09c4.37.03,8.41,3.66,8.61,8.18.23,5.08.2,9.87.02,15.15ZM169.44,35.84c2.63,0,4.54-2.14,4.54-4.6v-13.54c-.01-2.57-2.18-4.5-4.71-4.5h-13.53c-2.68,0-4.73,2.11-4.72,4.78l.02,13.25c0,2.65,2.08,4.63,4.7,4.63h13.7Z"/>
          <path d="M175.57,82.41c.96-.34,1.92.06,2.2.96.25.78-.01,1.83-.83,2.1-.91.3-1.85.21-2.29-.77-.34-.76-.12-1.93.92-2.3Z"/>
          <path d="M175.43,50.32c1.09-.39,2.05.02,2.33.92.25.78.02,1.8-.83,2.1s-1.84.09-2.27-.77c-.34-.67-.25-1.88.77-2.25Z"/>
          <path d="M175.44,64.14c1.06-.39,2.08-.04,2.33.89.22.8,0,1.77-.88,2.11-.76.29-1.8.11-2.24-.77-.33-.66-.24-1.85.79-2.23Z"/>
          <path d="M175.43,155.45c1.14-.39,2.07-.04,2.33.95.2.76-.02,1.76-.84,2.06s-1.87.13-2.28-.78c-.29-.64-.19-1.89.79-2.22Z"/>
          <path d="M52.54,48.66c-.7.31-1.49.27-1.99-.12-.81-.63-.68-1.9-.08-2.49.69-.68,1.92-.57,2.54.15.56.65.58,1.99-.48,2.46Z"/>
          <path d="M50.73,78c.99-.53,2.07-.29,2.47.67.28.67.22,1.67-.64,2.14-.67.37-1.8.31-2.32-.46-.39-.58-.39-1.88.49-2.35Z"/>
          <path d="M175.54,168.91c.97-.27,1.96.07,2.22.96.23.79,0,1.84-.84,2.09s-1.89.13-2.29-.76c-.34-.74-.11-2.01.91-2.29Z"/>
          <path d="M175.43,77.91c1.04-.4,2.09,0,2.34.91.22.79,0,1.76-.9,2.09-.77.29-1.79.15-2.22-.75-.32-.66-.25-1.85.78-2.25Z"/>
          <path d="M74.14,18.42c.93-.32,1.83-.03,2.21.73.42.84.16,1.86-.67,2.24-.78.36-2.04.18-2.3-.53-.36-.96-.23-2.1.76-2.44Z"/>
          <path d="M147.63,91.53c.92-.53,2.06-.34,2.47.62.26.62.3,1.76-.61,2.2-.66.32-1.76.35-2.31-.5-.36-.55-.45-1.79.45-2.31Z"/>
          <path d="M111.03,36.84c.95-.43,2.02.03,2.28.85s0,1.83-.87,2.15c-.77.28-1.85.14-2.28-.79-.3-.65-.15-1.76.86-2.21Z"/>
          <path d="M13.93,45.82c.84-.42,1.98-.23,2.38.68.28.62.25,1.8-.59,2.2-.73.35-1.75.36-2.34-.5-.42-.62-.41-1.9.55-2.38Z"/>
          <path d="M87.95,141.58c1-.25,1.9.18,2.19,1.04.26.77-.15,1.83-.81,2.05-.95.32-1.94.08-2.3-.77s-.12-2.06.92-2.33Z"/>
          <path d="M175.43,45.78c1.04-.42,2.06-.03,2.34.93.22.74.02,1.76-.96,2.06-.7.21-1.78.18-2.17-.71-.31-.69-.24-1.86.79-2.28Z"/>
          <path d="M115.73,155.41c1.03-.36,1.94.1,2.18.87.28.91.1,2.06-.88,2.27-.8.17-1.71.01-2.15-.82-.39-.75-.28-1.93.86-2.32Z"/>
          <path d="M162.17,59.34c1.21-.15,1.9.49,2,1.38.11.96-.37,1.78-1.3,1.93s-1.77-.32-1.92-1.19c-.16-.92.08-1.97,1.23-2.12Z"/>
          <path d="M175.44,123.55c1.05-.39,2.06.03,2.33.94.23.77-.01,1.77-.89,2.08-.8.28-1.81.15-2.22-.77-.3-.67-.28-1.86.78-2.25Z"/>
          <path d="M138.55,91.43c1.05-.43,2.03-.06,2.36.91.24.7.05,1.75-.89,2.07-.75.25-1.75.22-2.2-.77-.28-.61-.31-1.79.73-2.22Z"/>
          <path d="M87.95,168.89c.95-.29,1.94.17,2.2,1.03s-.07,1.79-.86,2.05c-.9.29-1.89.13-2.28-.72s-.09-2.04.94-2.35Z"/>
          <path d="M170.95,173.5c1.06-.33,2.03.22,2.19,1.05.17.89-.09,1.88-1.07,2.12-.75.18-1.72-.13-2.06-.9s-.11-1.94.94-2.27Z"/>
          <path d="M51,141.65c1.01-.37,1.97.15,2.27.94s-.09,1.81-.82,2.07c-.91.33-1.88.1-2.27-.79-.31-.71-.23-1.84.83-2.23Z"/>
          <path d="M14.06,64.1c1.03-.41,2.06,0,2.33.93.21.74,0,1.78-.87,2.08-.79.28-1.81.15-2.24-.78-.29-.64-.26-1.81.79-2.22Z"/>
          <path d="M87.7,32.29c.89-.41,1.95-.22,2.37.71.31.69.15,1.63-.66,2.14-.64.4-1.78.32-2.27-.43s-.39-1.98.56-2.42Z"/>
          <path d="M147.92,77.86c.99-.29,1.96,0,2.25.98.22.75.04,1.77-.87,2.08-.75.26-1.84.17-2.22-.75-.32-.75-.19-2,.85-2.3Z"/>
          <path d="M147.98,82.4c.92-.32,1.96.06,2.2.96.21.77,0,1.83-.83,2.1-.89.28-1.89.27-2.28-.78-.26-.71-.14-1.91.91-2.28Z"/>
          <path d="M138.29,78.01c.97-.53,2-.24,2.44.45.48.75.28,1.86-.4,2.3-.74.49-1.81.41-2.28-.16-.55-.66-.59-2.15.23-2.6Z"/>
          <path d="M147.87,96.01c1.03-.39,2.08-.02,2.31.86.22.83,0,1.78-.87,2.12-.79.31-1.83.17-2.26-.81-.26-.6-.18-1.79.82-2.17Z"/>
          <path d="M14.15,82.41c1.05-.28,1.9.05,2.24,1.03.25.73-.04,1.73-.84,2.04s-1.87.1-2.26-.78c-.35-.77-.17-2.02.86-2.29Z"/>
          <path d="M50.97,18.45c1-.41,2.09,0,2.32.93.18.74-.02,1.79-.88,2.1-.79.28-1.78.11-2.23-.78-.33-.64-.24-1.82.79-2.25Z"/>
          <path d="M50.95,64.12c1.08-.42,2.07-.03,2.32.98.18.72.01,1.77-.87,2.04-.79.25-1.84.08-2.26-.76-.34-.69-.21-1.87.81-2.26Z"/>
          <path d="M147.64,45.87c.86-.51,2.05-.31,2.46.61.27.6.31,1.79-.61,2.18-.7.3-1.7.36-2.3-.5-.38-.54-.49-1.73.45-2.3Z"/>
          <path d="M170.78,150.89c.87-.37,1.82-.11,2.2.67s.21,1.84-.64,2.28c-.78.4-1.83.19-2.25-.62s-.28-1.91.7-2.33Z"/>
          <path d="M23.35,50.32c1.11-.37,2.07-.03,2.36.96.21.73-.03,1.75-.88,2.04-.8.27-1.89.15-2.26-.75-.29-.7-.25-1.91.79-2.26Z"/>
          <path d="M50.96,50.3c1.08-.4,2.07.03,2.3.99.19.78,0,1.76-.86,2.03s-1.84.1-2.26-.76c-.34-.69-.19-1.9.82-2.27Z"/>
          <path d="M147.93,137.03c1.02-.34,1.91,0,2.24.98.24.72.04,1.76-.87,2.09-.76.28-1.79.15-2.22-.79-.32-.71-.16-1.95.85-2.28Z"/>
          <path d="M138.4,32.28c.87-.41,1.96-.24,2.42.68.29.58.24,1.72-.63,2.2-.61.33-1.75.35-2.27-.49-.39-.63-.46-1.93.49-2.38Z"/>
          <path d="M83.52,36.77c.81-.35,1.91.1,2.22.88s0,1.83-.88,2.16c-.77.29-1.78.21-2.26-.81-.32-.68-.15-1.78.92-2.23Z"/>
          <path d="M101.81,141.62c.81-.31,1.87.03,2.14.68.39.91.06,1.98-.63,2.3-.93.44-2.07.21-2.36-.61-.33-.93-.17-1.98.85-2.37Z"/>
          <path d="M175.43,137.08c1.1-.41,2.05-.05,2.33.94.21.73.04,1.75-.86,2.1-.78.31-1.72.07-2.21-.82-.35-.63-.3-1.82.74-2.22Z"/>
          <path d="M175.54,95.94c1-.28,1.96.02,2.24.99.22.78,0,1.72-.89,2.04-.8.29-1.82.15-2.24-.75-.35-.75-.13-2,.89-2.29Z"/>
          <path d="M124.81,109.83c.91-.49,1.91-.08,2.28.61.44.81.22,1.9-.63,2.32-.75.37-1.66.25-2.2-.51-.46-.66-.47-1.87.54-2.41Z"/>
          <path d="M74.08,155.48c1.02-.41,1.94-.04,2.27.66.43.9.1,1.9-.65,2.27s-1.88.18-2.23-.43c-.47-.82-.39-2.09.61-2.49Z"/>
          <path d="M87.86,50.3c.97-.35,2.06,0,2.23.8.2.95.18,1.99-.97,2.28-.65.16-1.64.16-2.07-.78-.3-.66-.29-1.9.82-2.31Z"/>
          <path d="M111.25,173.47c1.02-.29,1.87.32,2.09,1.12.24.89-.21,1.83-1.21,2.08-.71.18-1.63-.15-1.97-1.02-.28-.73-.01-1.87,1.1-2.18Z"/>
          <path d="M83.51,50.3c.89-.37,1.89.04,2.22.91.29.78.06,1.77-.87,2.11-.77.28-1.76.22-2.26-.79-.33-.67-.13-1.8.91-2.23Z"/>
          <path d="M65.42,59.33c.94-.07,1.75.71,1.85,1.39.15,1.05-.48,1.8-1.3,1.93-.97.16-1.8-.37-1.96-1.17-.21-1.07.25-2.07,1.41-2.16Z"/>
          <path d="M74.1,50.36c.95-.46,1.9-.07,2.26.64.43.84.14,1.9-.65,2.25s-1.83.25-2.22-.41c-.49-.82-.42-1.99.6-2.49Z"/>
          <path d="M152.73,68.63c.97-.24,1.96.19,2.14,1.1.16.79-.13,1.85-1.09,2.11-.71.19-1.7-.14-2.03-.89-.4-.9-.07-2.06.99-2.32Z"/>
          <path d="M74.19,36.8c.86-.33,1.83,0,2.19.68.45.83.07,1.91-.66,2.28-.81.41-2.03.16-2.34-.59-.37-.89-.15-2.01.81-2.38Z"/>
          <path d="M110.71,45.88c.86-.52,1.98-.27,2.43.43.42.65.33,1.85-.39,2.3s-1.68.35-2.22-.2c-.6-.61-.71-1.99.18-2.53Z"/>
          <path d="M166.44,109.78c1.06-.38,2.05.02,2.31.98.19.72-.06,1.75-.86,2.04s-1.87.16-2.25-.8c-.26-.66-.25-1.83.8-2.21Z"/>
          <path d="M97.01,45.8c.8-.34,1.91-.24,2.27.58.32.73.25,1.89-.69,2.36-.62.31-1.82.23-2.24-.65-.35-.73-.31-1.87.67-2.29Z"/>
          <path d="M50.83,105.26c.85-.42,1.95-.26,2.39.69.29.64.18,1.65-.7,2.16-.67.39-1.6.32-2.23-.49-.5-.64-.43-1.88.54-2.36Z"/>
          <path d="M37.23,45.76c.92-.28,1.92-.14,2.26.68s.24,1.86-.68,2.28c-.78.36-1.82.18-2.25-.63s-.33-2.04.66-2.34Z"/>
          <path d="M138.67,155.43c.88-.3,1.85,0,2.17.72.38.85.06,1.91-.64,2.23-.93.43-2.06.2-2.34-.56-.35-.95-.19-2.04.81-2.39Z"/>
          <path d="M64.81,168.99c.97-.47,1.9-.05,2.28.65.45.83.1,1.9-.66,2.29-.69.34-1.85.15-2.23-.43-.51-.79-.34-2.04.62-2.5Z"/>
          <path d="M55.62,109.78c.85-.37,1.79-.03,2.17.67.44.82.13,1.87-.64,2.28-.85.45-1.9.19-2.3-.64s-.22-1.89.77-2.32Z"/>
          <path d="M147.86,155.46c1.02-.39,2.06.03,2.31.87s0,1.82-.84,2.12-1.89.18-2.28-.79c-.24-.6-.15-1.84.81-2.21Z"/>
          <path d="M50.95,168.95c1.11-.37,2.01.06,2.32,1.01.24.74-.09,1.73-.87,1.99-.88.29-1.88.14-2.25-.74-.3-.72-.22-1.92.8-2.26Z"/>
          <path d="M138.68,36.8c.87-.31,1.86.01,2.14.73.35.91.08,1.92-.63,2.22-.96.41-2.1.22-2.37-.57-.32-.94-.12-2.04.86-2.39Z"/>
          <path d="M55.59,150.88c.85-.36,1.83-.06,2.21.68.42.82.17,1.83-.66,2.28s-1.8.21-2.26-.63-.27-1.91.71-2.33Z"/>
          <path d="M50.95,150.88c1.04-.39,2.09.02,2.34.94.2.72-.08,1.77-.91,2.04-.77.25-1.88.17-2.24-.69-.29-.69-.19-1.91.81-2.28Z"/>
          <path d="M129.93,59.33c.98-.07,1.66.76,1.78,1.44.18,1.03-.65,1.71-1.28,1.87-1.08.28-1.82-.49-1.96-1.15-.26-1.19.33-2.08,1.46-2.16Z"/>
          <path d="M55.53,18.49c.92-.5,1.88-.07,2.28.66.44.8.18,1.83-.67,2.25-.72.36-1.71.21-2.18-.45-.53-.74-.44-1.92.56-2.46Z"/>
          <path d="M64.78,18.47c.95-.47,1.91-.04,2.3.67.42.78.16,1.86-.64,2.25-.76.37-1.72.19-2.18-.46-.51-.73-.47-1.98.52-2.47Z"/>
          <path d="M13.86,105.3c.9-.54,2.04-.28,2.46.64.29.64.18,1.65-.66,2.17-.64.4-1.72.34-2.26-.48-.38-.58-.44-1.79.45-2.33Z"/>
          <path d="M92.44,18.44c.93-.32,1.84-.04,2.24.71s.12,1.85-.65,2.26c-.82.43-1.9.14-2.3-.63s-.22-2.02.71-2.35Z"/>
          <path d="M46.23,23.05c.95-.45,1.9.02,2.25.64.51.89.09,1.89-.65,2.29s-1.82.17-2.24-.46c-.5-.75-.33-2.01.63-2.47Z"/>
          <path d="M37.56,100.48c1.02-.23,1.89.28,2.05,1.13.19.95-.18,1.78-1.11,2.09-.83.28-1.73-.11-2.01-.88-.36-1-.04-2.09,1.06-2.33Z"/>
          <path d="M74.2,23c.9-.33,1.82.02,2.17.71.44.87.06,1.88-.67,2.25-.88.45-2.06.23-2.35-.6-.31-.9-.14-2.01.84-2.37Z"/>
          <path d="M78.95,22.97c.92-.23,1.85.11,2.09.88.29.91.14,2.03-.9,2.27-.79.18-1.87.01-2.19-1.01-.23-.74-.03-1.89,1-2.15Z"/>
          <path d="M133.82,23.08c.93-.46,1.95-.09,2.29.59.39.78.24,2-.57,2.35-.76.33-1.74.17-2.27-.56-.43-.59-.39-1.93.55-2.39Z"/>
          <path d="M51.26,27.52c1.02-.25,1.86.41,2.04,1.17.23.93-.32,1.82-1.19,2.05s-1.68-.19-1.98-.98c-.32-.84.01-1.95,1.13-2.23Z"/>
          <path d="M83.75,27.51c.98-.23,1.82.4,2.03,1.13.28.98-.29,1.75-1.08,2.04-.89.34-1.78-.15-2.04-.82-.41-1.07.02-2.11,1.09-2.36Z"/>
          <path d="M97.44,27.5c1.14-.23,1.89.46,1.98,1.34s-.29,1.75-1.31,1.93c-.76.13-1.67-.35-1.88-1.17-.23-.88.08-1.87,1.22-2.09Z"/>
          <path d="M138.68,82.42c.88-.31,1.82.05,2.15.75.4.85.06,1.93-.63,2.22-.95.4-2.09.21-2.35-.56-.33-.97-.17-2.06.83-2.41Z"/>
          <path d="M106.79,59.37c1.02-.16,1.87.39,1.94,1.31s-.32,1.77-1.32,1.97c-.81.16-1.7-.24-1.96-1.19-.22-.84.33-1.93,1.34-2.09Z"/>
          <path d="M170.92,95.95c1.04-.37,1.89.18,2.15.89.34.92-.07,1.9-.92,2.19-.78.26-1.73,0-2.12-.74s-.15-1.96.89-2.33Z"/>
          <path d="M55.6,32.25c.84-.39,1.83-.12,2.2.68s.23,1.87-.65,2.27c-.78.36-1.86.16-2.29-.6-.45-.82-.22-1.9.73-2.34Z"/>
          <path d="M106.45,50.3c1.02-.36,1.92.08,2.18.88.27.86-.02,1.91-.94,2.19-.76.23-1.69.03-2.1-.74s-.26-1.92.86-2.32Z"/>
          <path d="M133.9,91.43c.84-.4,1.84-.14,2.23.65.36.74.23,1.86-.67,2.32-.68.35-1.85.14-2.29-.64s-.19-1.9.72-2.33Z"/>
          <path d="M161.92,95.95c1.02-.35,1.9.17,2.14.89.32.94-.03,1.94-.92,2.19-.8.23-1.77.04-2.11-.74s-.22-1.96.89-2.34Z"/>
          <path d="M83.45,137.06c.93-.35,1.92-.02,2.3.9.29.71.03,1.74-.92,2.14-.67.29-1.66.15-2.21-.8-.36-.62-.17-1.86.83-2.24Z"/>
          <path d="M175.42,150.89c1.04-.41,2.05-.04,2.35.92.22.69.05,1.79-.87,2.08-.79.25-1.7.12-2.23-.78-.36-.61-.31-1.79.75-2.21Z"/>
          <path d="M124.89,64.12c.82-.38,1.82-.09,2.21.65.43.8.23,1.86-.66,2.29-.81.39-1.8.28-2.28-.63-.4-.76-.25-1.86.72-2.31Z"/>
          <path d="M166.54,64.05c.97-.32,1.89.08,2.19,1.08.21.68-.02,1.76-.86,1.99-.9.25-1.89.24-2.24-.78-.27-.79-.18-1.93.91-2.29Z"/>
          <path d="M28.27,68.6c.89-.21,1.8.25,2.02.91.34,1.02-.06,1.99-.91,2.22-1.04.28-1.95.1-2.2-.97-.2-.88-.02-1.9,1.09-2.16Z"/>
          <path d="M175.6,141.62c.87-.31,1.91.16,2.17.94.28.83-.11,1.84-.84,2.12-.9.35-1.87.13-2.3-.8-.35-.75-.08-1.89.96-2.26Z"/>
          <path d="M110.93,123.58c1.02-.44,1.95-.03,2.3.71.37.79.1,1.9-.63,2.23-.79.36-1.86.17-2.22-.42-.48-.79-.41-2.11.55-2.52Z"/>
          <path d="M115.86,173.47c.88-.23,1.83.2,2.05.85.33,1,0,2.01-.88,2.26s-1.91.01-2.25-.99c-.25-.73.1-1.87,1.08-2.12Z"/>
          <path d="M166.54,82.42c.96-.29,1.99.04,2.21.96.19.78-.04,1.77-.86,2.07-.87.32-1.83.22-2.26-.79-.29-.68-.1-1.94.91-2.24Z"/>
          <path d="M175.52,91.38c.91-.31,1.95.03,2.26.97.23.69.01,1.78-.89,2.08-.78.26-1.71.14-2.22-.78-.38-.7-.21-1.91.84-2.27Z"/>
          <path d="M143.43,168.88c.88-.26,1.79.21,2.05.92.33.89,0,1.99-.89,2.21s-1.89-.03-2.22-.95c-.3-.84.01-1.88,1.05-2.19Z"/>
          <path d="M120.36,168.91c.88-.33,1.84.04,2.15.76.36.85.08,1.92-.62,2.23-.89.39-2.09.13-2.36-.56-.36-.96-.12-2.07.83-2.43Z"/>
          <path d="M115.83,168.87c.9-.26,1.83.18,2.08.92.33.96.08,1.95-.93,2.23-.84.23-1.83.03-2.18-.96-.27-.77.03-1.89,1.03-2.19Z"/>
          <path d="M101.71,168.96c.93-.45,1.93.04,2.22.7.4.92.11,1.92-.63,2.25-.79.36-1.9.19-2.26-.41-.48-.82-.3-2.07.67-2.54Z"/>
          <path d="M78.94,168.88c.91-.28,1.83.12,2.09.91.31.92.16,1.97-.93,2.24-.78.19-1.85.07-2.17-.97-.24-.77-.01-1.87,1.01-2.19Z"/>
          <path d="M74.22,168.92c.82-.35,1.82.04,2.14.71.41.88.12,1.93-.63,2.27-.9.41-2,.18-2.33-.6-.39-.92-.16-1.95.83-2.38Z"/>
          <path d="M170.94,82.42c1.01-.38,1.87.19,2.12.9.33.92-.06,1.92-.91,2.2-.8.27-1.71-.03-2.11-.76-.43-.8-.2-1.93.89-2.34Z"/>
          <path d="M37.21,109.82c.91-.46,1.93-.07,2.26.62.4.83.13,1.89-.63,2.3s-1.71.15-2.2-.51-.4-1.94.57-2.42Z"/>
          <path d="M9.44,64.12c.85-.42,1.78-.06,2.19.67.43.78.17,1.85-.65,2.29s-1.82.17-2.29-.65c-.44-.76-.16-1.86.76-2.31Z"/>
          <path d="M133.91,18.46c.85-.4,1.82-.15,2.21.65s.26,1.85-.65,2.3c-.75.37-1.83.26-2.26-.63-.37-.77-.25-1.86.7-2.31Z"/>
          <path d="M23.45,64.07c1-.27,1.97.01,2.23,1.02.19.72,0,1.79-.87,2.06-.8.25-1.87.14-2.24-.77-.32-.78-.17-2.02.88-2.31Z"/>
          <path d="M129.33,123.54c.97-.34,1.82-.06,2.22.75s.12,1.83-.64,2.22c-.85.44-1.93.13-2.3-.62-.42-.84-.22-2.03.72-2.36Z"/>
          <path d="M37.22,64.15c.92-.48,1.9-.08,2.27.65.41.81.15,1.86-.64,2.27s-1.69.23-2.18-.48-.47-1.91.56-2.44Z"/>
          <path d="M175.21,73.44c.89-.54,2.02-.31,2.5.64.3.61.24,1.61-.71,2.13-.63.34-1.6.36-2.22-.46-.42-.54-.48-1.76.43-2.31Z"/>
          <path d="M46.23,18.48c.93-.5,1.88-.08,2.27.66.41.8.16,1.86-.65,2.26s-1.69.22-2.18-.46c-.53-.74-.44-1.91.57-2.45Z"/>
          <path d="M129.84,27.49c1.04-.15,1.84.72,1.89,1.39.08,1.08-.58,1.72-1.34,1.88-1.03.21-1.76-.45-1.91-1.11-.26-1.12.17-1.99,1.36-2.16Z"/>
          <path d="M143.12,64.16c.91-.51,1.87-.09,2.29.62.47.78.19,1.83-.67,2.3-.69.37-1.65.22-2.16-.49s-.46-1.86.54-2.43Z"/>
          <path d="M9.35,137.12c.89-.5,1.88-.07,2.27.64.43.8.17,1.86-.65,2.28-.73.38-1.67.2-2.18-.48s-.44-1.88.56-2.44Z"/>
          <path d="M23.34,105.23c1.11-.45,2.01-.09,2.33.99.19.64.03,1.65-.87,2-.77.3-1.69.11-2.19-.8-.33-.61-.3-1.77.73-2.18Z"/>
          <path d="M161.69,64.15c.91-.49,1.89-.08,2.3.63.44.77.16,1.84-.66,2.27-.72.38-1.66.24-2.17-.48-.48-.67-.44-1.9.53-2.43Z"/>
          <path d="M60.05,32.34c.9-.49,2.07-.25,2.46.69.26.63.12,1.65-.68,2.1-.69.39-1.81.4-2.27-.45-.35-.64-.46-1.82.49-2.34Z"/>
          <path d="M124.82,82.5c.91-.5,1.9-.06,2.27.62.45.82.23,1.89-.63,2.3-.75.35-1.68.25-2.21-.5-.45-.64-.39-1.89.57-2.42Z"/>
          <path d="M102.22,13.71c1.07-.17,1.79.69,1.86,1.37.11,1.13-.38,1.8-1.29,1.89-.99.09-1.81-.36-1.94-1.12-.19-1.07.16-1.94,1.37-2.14Z"/>
          <path d="M143.63,59.37c1.09-.23,1.87.58,1.97,1.34.13,1-.43,1.72-1.34,1.93s-1.74-.34-1.95-1.19.26-1.86,1.31-2.08Z"/>
          <path d="M41.81,82.39c.94-.34,1.82.19,2.14,1.04.3.8-.03,1.77-.83,2.04-.91.31-1.86.18-2.24-.77-.32-.8-.11-1.93.93-2.31Z"/>
          <path d="M32.97,59.4c1.02-.26,1.82.4,2.02,1.21.22.87-.33,1.79-1.14,2.04-.9.27-1.71-.25-2.02-1.04-.33-.83.04-1.92,1.14-2.2Z"/>
          <path d="M65.15,27.53c.94-.21,1.89.31,2.06,1.1.2.94-.09,1.87-1.08,2.1-.76.18-1.77-.13-2.03-.85-.37-1-.02-2.1,1.05-2.35Z"/>
          <path d="M170.8,137.08c.86-.4,1.78-.05,2.19.69.43.78.17,1.84-.65,2.28s-1.83.16-2.27-.64-.21-1.89.73-2.32Z"/>
          <path d="M55.54,68.72c.9-.42,1.95-.03,2.26.6.44.89.15,1.97-.63,2.33s-1.79.22-2.24-.5-.4-1.97.6-2.43Z"/>
          <path d="M92.65,54.87c1.04-.28,1.92.2,2.12.88.31,1.04-.07,1.97-.91,2.17-.93.23-1.86.1-2.16-.7-.33-.89-.19-2.04.94-2.35Z"/>
          <path d="M87.88,54.89c1.07-.37,1.96.17,2.25.99s-.16,1.78-.8,2c-.99.35-1.94.09-2.33-.76-.32-.71-.09-1.9.88-2.24Z"/>
          <path d="M79.24,27.49c.99-.17,1.79.5,1.9,1.33.12.95-.29,1.78-1.33,1.96-.74.13-1.65-.31-1.89-1.17-.26-.92.24-1.93,1.33-2.12Z"/>
          <path d="M83.49,155.43c.84-.33,1.84,0,2.19.66.45.86.1,1.9-.66,2.29-.82.42-1.95.16-2.33-.62s-.14-1.96.8-2.33Z"/>
          <path d="M88.12,9.17c1.09-.24,1.91.45,2.08,1.22.2.95-.35,1.78-1.1,1.93-.99.2-1.88-.12-2.15-1.06-.22-.78.05-1.85,1.17-2.09Z"/>
          <path d="M92.47,150.87c.84-.34,1.83-.07,2.24.69s.16,1.84-.69,2.25-1.83.24-2.26-.6-.29-1.94.71-2.34Z"/>
          <path d="M101.72,32.2c.9-.28,1.87-.05,2.23.75.34.75.12,1.89-.65,2.23-.87.38-1.92.15-2.28-.6-.42-.89-.31-2.06.7-2.38Z"/>
          <path d="M55.34,105.27c.8-.46,1.85-.21,2.34.48s.46,1.76-.38,2.31c-.71.46-1.77.37-2.32-.36-.49-.65-.46-1.96.35-2.43Z"/>
          <path d="M115.74,50.28c.98-.35,1.91.17,2.17.89.34.9,0,1.93-.94,2.2-.76.22-1.69.05-2.09-.75-.37-.76-.27-1.94.85-2.34Z"/>
          <path d="M87.72,164.69c.9-.41,1.97-.22,2.36.78.25.64.13,1.63-.7,2.09-.66.36-1.81.32-2.26-.41s-.34-2.02.59-2.45Z"/>
          <path d="M27.67,59.66c.79-.6,1.98-.31,2.44.39s.41,1.78-.41,2.37c-.63.45-1.55.41-2.2-.23-.51-.5-.62-1.92.18-2.52Z"/>
          <path d="M74.15,137.04c.94-.36,1.8-.02,2.23.74s.06,1.84-.66,2.25c-.84.47-1.91.12-2.3-.62-.44-.84-.21-2,.73-2.37Z"/>
          <path d="M55.53,23.05c.91-.45,1.92,0,2.28.62.49.87.1,1.89-.65,2.29-.79.42-1.73.23-2.23-.48s-.38-1.94.6-2.43Z"/>
          <path d="M110.9,150.91c1.01-.41,2.01-.09,2.34.67.36.81.12,1.88-.66,2.25-.82.39-1.7.24-2.17-.46s-.55-2.04.49-2.46Z"/>
          <path d="M73.89,59.62c.87-.44,1.86-.3,2.39.48.43.64.43,1.77-.4,2.32-.67.45-1.8.32-2.31-.36s-.5-2.02.33-2.44Z"/>
          <path d="M92.13,59.67c.88-.58,1.93-.29,2.46.43.47.63.41,1.78-.42,2.32-.62.41-1.65.36-2.19-.22s-.69-1.99.15-2.54Z"/>
          <path d="M129.08,105.25c.88-.43,1.88-.25,2.36.52.42.68.39,1.78-.38,2.28s-1.83.36-2.33-.34-.48-2.05.36-2.46Z"/>
          <path d="M23.39,82.41c.94-.34,1.96.14,2.2.84.31.91.11,2.01-.92,2.26-.75.18-1.72.22-2.1-.84-.23-.62-.32-1.86.82-2.26Z"/>
          <path d="M166.2,45.89c.94-.53,2.06-.34,2.47.66.26.64.19,1.6-.68,2.13-.59.36-1.78.36-2.26-.47-.34-.58-.4-1.83.47-2.32Z"/>
          <path d="M129.02,164.8c.9-.58,1.94-.36,2.44.44.38.61.39,1.78-.42,2.28-.65.41-1.67.33-2.2-.2-.61-.61-.67-1.98.18-2.52Z"/>
          <path d="M78.64,137.16c.94-.56,1.98-.21,2.42.71.33.68.13,1.62-.65,2.1-.74.45-1.75.3-2.27-.44-.46-.66-.41-1.82.5-2.36Z"/>
          <path d="M55.53,123.59c.91-.48,1.91-.05,2.27.65.42.82.16,1.87-.65,2.29-.74.38-1.72.17-2.19-.48-.53-.73-.44-1.93.57-2.46Z"/>
          <path d="M55.53,77.96c.93-.48,1.88-.11,2.28.64s.14,1.86-.66,2.26-1.71.22-2.17-.46c-.54-.78-.49-1.9.56-2.44Z"/>
          <path d="M18.97,82.36c.91-.28,1.77.25,2.03.95.35.94-.04,1.94-.9,2.19-.94.27-1.88-.03-2.21-.94-.3-.85.08-1.88,1.09-2.19Z"/>
          <path d="M46.01,45.84c.88-.42,1.86-.3,2.4.45.45.63.42,1.76-.41,2.32-.65.44-1.79.32-2.32-.36s-.48-2.02.34-2.41Z"/>
          <path d="M60.13,77.94c.76-.36,1.91-.24,2.29.57.3.66.3,1.96-.67,2.37-.61.26-1.82.28-2.28-.66-.31-.64-.26-1.84.66-2.28Z"/>
          <path d="M9.34,109.82c.92-.48,1.9-.06,2.27.62.46.82.18,1.87-.64,2.3-.75.39-1.69.24-2.18-.5-.46-.69-.46-1.89.55-2.42Z"/>
          <path d="M129.01,91.51c.89-.52,1.98-.23,2.43.46s.38,1.84-.38,2.3c-.71.44-1.71.36-2.21-.21-.56-.64-.71-2.04.16-2.55Z"/>
          <path d="M27.93,137.11c.87-.48,1.91-.04,2.27.65.43.8.21,1.88-.65,2.27-.74.35-1.68.24-2.17-.47s-.44-1.91.55-2.46Z"/>
          <path d="M152.64,155.39c.97-.36,1.9.19,2.14.89.32.9-.04,1.96-.92,2.2-.81.22-1.71.05-2.1-.77-.36-.77-.23-1.91.88-2.32Z"/>
          <path d="M175.23,59.64c.86-.54,2.02-.27,2.46.65.3.62.19,1.62-.68,2.16-.64.4-1.65.29-2.22-.48-.44-.6-.51-1.75.43-2.33Z"/>
          <path d="M166.55,155.4c.99-.33,1.89.06,2.17,1,.22.73-.03,1.8-.8,2.06-.91.31-1.88.18-2.29-.82-.29-.71-.11-1.9.92-2.24Z"/>
          <path d="M14.19,109.75c.94-.3,1.94.04,2.2.95.22.77-.02,1.8-.85,2.09s-1.83.16-2.25-.8c-.32-.71-.14-1.91.9-2.25Z"/>
          <path d="M101.79,36.8c.87-.33,1.85,0,2.14.71.36.9.13,1.9-.62,2.25-.88.41-2.02.16-2.34-.59-.38-.9-.13-2.01.82-2.37Z"/>
          <path d="M27.93,109.83c.95-.49,1.88-.07,2.26.62.45.83.17,1.86-.63,2.29-.74.4-1.7.24-2.18-.5-.45-.69-.43-1.91.55-2.42Z"/>
          <path d="M14.38,68.63c1.03-.28,1.91.44,2.07,1.17.21.95-.33,1.82-1.1,1.98-1,.22-1.84-.07-2.14-1.13-.2-.69.03-1.71,1.17-2.02Z"/>
          <path d="M161.95,68.65c.94-.33,1.93.21,2.13.86.29.95-.11,1.99-.92,2.23-.85.25-1.79.06-2.13-.76s-.21-1.93.92-2.32Z"/>
          <path d="M166.52,68.66c.9-.42,1.87.19,2.18.96s-.03,1.81-.97,2.15c-.7.26-1.63.03-2.03-.72s-.21-1.9.83-2.39Z"/>
          <path d="M129.33,150.85c.92-.32,1.85-.03,2.22.75s.15,1.86-.66,2.22-1.93.17-2.28-.59c-.39-.85-.22-2.05.72-2.38Z"/>
          <path d="M120.31,150.86c.93-.31,1.85-.03,2.22.75s.11,1.82-.68,2.2c-.85.4-1.94.21-2.27-.57-.37-.87-.23-2.06.73-2.38Z"/>
          <path d="M83.33,150.91c1.02-.42,1.93-.1,2.31.68s.18,1.85-.67,2.21c-.76.32-1.7.21-2.14-.43-.52-.76-.54-2.03.5-2.46Z"/>
          <path d="M74.15,150.87c.9-.35,1.83-.07,2.21.71s.14,1.84-.66,2.24c-.88.43-1.84.22-2.27-.62s-.25-1.96.72-2.33Z"/>
          <path d="M37.31,137.06c.85-.41,1.79-.04,2.17.72s.15,1.85-.64,2.26-1.85.12-2.29-.64c-.47-.82-.17-1.89.76-2.33Z"/>
          <path d="M46.22,150.93c.93-.47,1.92-.13,2.28.62.38.81.21,1.86-.68,2.28-.68.32-1.66.18-2.14-.47-.54-.72-.48-1.92.54-2.43Z"/>
          <path d="M18.7,77.92c.86-.38,1.82-.09,2.21.66.43.81.24,1.83-.66,2.29-.76.39-1.79.17-2.28-.64-.45-.74-.2-1.9.72-2.3Z"/>
          <path d="M46.31,77.91c.86-.38,1.8-.06,2.19.68.43.8.2,1.83-.67,2.26-.78.38-1.82.18-2.26-.62s-.21-1.91.73-2.33Z"/>
          <path d="M143.19,77.92c.87-.4,1.79-.1,2.23.67s.18,1.8-.69,2.3c-.68.39-1.82.12-2.26-.65s-.2-1.89.72-2.32Z"/>
          <path d="M170.79,77.91c.87-.39,1.8-.07,2.21.67.43.79.19,1.82-.66,2.31-.72.42-1.82.1-2.26-.66s-.23-1.9.71-2.32Z"/>
          <path d="M9.57,82.42c.97-.37,1.9.19,2.13.88.32.94-.02,1.95-.9,2.21-.81.24-1.7.02-2.11-.76s-.22-1.91.89-2.33Z"/>
          <path d="M32.8,82.4c.99-.33,1.88.08,2.13,1.07.2.76-.02,1.73-.83,1.99-.92.29-1.89.16-2.25-.76-.33-.83-.1-1.94.95-2.3Z"/>
          <path d="M69.65,141.58c.91-.22,1.85.16,2.09.88.31.94.12,2.01-.89,2.27-.84.22-1.87.05-2.18-1.04-.2-.69-.04-1.87.98-2.12Z"/>
          <path d="M9.36,86.88c.87-.32,1.95-.28,2.3.66.27.72.32,1.81-.74,2.26-.63.27-1.77.22-2.21-.59-.4-.74-.31-1.98.65-2.33Z"/>
          <path d="M124.8,91.47c.9-.49,1.91-.14,2.32.62s.23,1.83-.68,2.3c-.62.32-1.65.23-2.13-.49-.45-.68-.51-1.89.49-2.43Z"/>
          <path d="M170.78,91.44c.88-.4,1.79-.13,2.21.67.4.75.22,1.82-.65,2.28-.72.37-1.82.13-2.26-.63s-.23-1.9.7-2.32Z"/>
          <path d="M125.02,95.95c1.03-.38,1.9.15,2.18.89.34.88-.05,1.89-.93,2.19-.78.26-1.69.09-2.1-.76-.34-.7-.19-1.93.85-2.32Z"/>
          <path d="M74.34,127.82c1.08-.32,1.9.19,2.11.9.29,1.02-.15,1.92-.93,2.18-.86.29-1.84-.04-2.13-.72-.39-.91-.14-2.04.96-2.36Z"/>
          <path d="M101.93,127.81c1.07-.29,1.92.23,2.1.92.27,1.03-.18,1.92-.93,2.17-.88.29-1.89-.07-2.16-.73-.37-.91-.1-2.07.99-2.37Z"/>
          <path d="M138.81,141.6c1.07-.29,1.86.31,2.08.97.32.98-.24,1.93-.89,2.12-.98.29-1.94-.02-2.17-.69-.33-.97-.14-2.1.98-2.4Z"/>
          <path d="M115.74,141.63c.98-.33,1.93.18,2.16.85.33.99.05,2-.92,2.25-.81.21-1.67.05-2.12-.81-.37-.71-.23-1.92.87-2.29Z"/>
          <path d="M18.69,105.21c.85-.38,1.84-.15,2.26.68.37.73.24,1.82-.7,2.27-.72.35-1.77.21-2.24-.62-.43-.76-.27-1.9.69-2.32Z"/>
          <path d="M170.8,105.21c.83-.39,1.84-.1,2.2.68s.2,1.85-.69,2.27c-.75.36-1.83.19-2.25-.61s-.21-1.91.74-2.35Z"/>
          <path d="M129.26,109.82c.99-.43,1.92,0,2.26.67.43.85.1,1.87-.62,2.23-.8.4-1.81.21-2.21-.44-.46-.75-.4-2.04.57-2.46Z"/>
          <path d="M147.96,109.74c.92-.32,1.92.06,2.2.93.26.81.01,1.75-.86,2.09-.82.31-1.77.24-2.24-.82-.28-.64-.12-1.85.9-2.21Z"/>
          <path d="M170.73,109.82c.87-.47,1.89-.03,2.25.63.44.82.12,1.89-.64,2.3s-1.7.19-2.19-.5-.43-1.88.58-2.43Z"/>
          <path d="M120.32,123.52c.97-.31,1.83-.02,2.2.78s.11,1.83-.65,2.21c-.9.45-1.91.15-2.28-.61-.42-.88-.24-2.06.73-2.37Z"/>
          <path d="M64.83,132.51c.94-.32,1.86-.13,2.25.74.33.72.17,1.83-.69,2.23-.75.35-1.85.13-2.23-.6-.43-.84-.3-2.04.66-2.37Z"/>
          <path d="M51.26,114.29c1.04-.27,1.89.47,2.05,1.2.22.96-.37,1.78-1.09,1.94-1.02.23-1.88-.12-2.17-1.06-.23-.77.11-1.79,1.2-2.08Z"/>
          <path d="M138.32,132.64c.84-.55,1.95-.31,2.41.44.4.66.34,1.78-.42,2.29-.67.45-1.64.32-2.18-.2-.63-.61-.66-1.98.19-2.53Z"/>
          <path d="M97.26,141.58c.92-.24,1.82.16,2.05.91.29.91.11,2.01-.87,2.25-.88.21-1.87.03-2.19-1.04-.22-.72-.02-1.85,1.01-2.12Z"/>
          <path d="M55.61,137.07c.87-.4,1.79-.05,2.19.71s.16,1.85-.65,2.26-1.87.14-2.29-.62c-.45-.82-.18-1.92.75-2.34Z"/>
          <path d="M175.74,114.29c1.02-.27,1.92.46,2.08,1.16.22.97-.36,1.83-1.1,1.98-.99.21-1.87-.09-2.18-1.08-.22-.72.1-1.78,1.2-2.06Z"/>
          <path d="M50.97,137.07c1.06-.42,2.01.03,2.31,1.01.21.69-.1,1.62-.92,2-.77.36-1.76.05-2.18-.77-.35-.69-.23-1.84.79-2.25Z"/>
          <path d="M88.24,173.43c1.01-.16,1.82.46,1.93,1.36s-.28,1.72-1.38,1.93c-.64.12-1.62-.35-1.85-1.16-.26-.9.24-1.96,1.3-2.13Z"/>
          <path d="M171.03,168.88c.9-.24,1.79.24,2.04.93.34.94-.06,1.91-.91,2.19s-1.89-.1-2.2-.94.07-1.92,1.07-2.18Z"/>
          <path d="M74.33,54.86c1.08-.29,1.88.25,2.1.91.34,1.01-.18,1.92-.92,2.15-.88.27-1.87,0-2.15-.71-.34-.88-.11-2.06.97-2.35Z"/>
          <path d="M161.7,168.99c.9-.47,1.88-.04,2.25.63.45.83.19,1.89-.62,2.28s-1.7.23-2.18-.49-.46-1.9.55-2.43Z"/>
          <path d="M65.04,54.86c1.07-.3,1.89.23,2.12.9.34.99-.18,1.92-.94,2.18-.83.28-1.88,0-2.13-.7-.33-.89-.12-2.07.95-2.37Z"/>
          <path d="M152.63,168.93c.99-.36,1.91.15,2.16.89.29.87-.02,1.97-.92,2.2-.79.2-1.71.03-2.11-.77-.37-.73-.22-1.92.87-2.32Z"/>
          <path d="M37.71,54.82c1.09-.14,1.83.49,1.92,1.17.15,1.14-.34,1.99-1.18,2.05-1.02.08-1.88-.17-2.05-1.05-.18-.93.15-2.01,1.31-2.16Z"/>
          <path d="M101.72,155.45c.9-.43,1.94.02,2.21.68.38.9.11,1.93-.62,2.27-.82.39-1.84.18-2.22-.46-.49-.81-.39-2,.63-2.49Z"/>
          <path d="M125.03,168.93c1.02-.37,1.87.14,2.15.88.34.88-.06,1.87-.93,2.18-.74.27-1.7.04-2.07-.74s-.25-1.92.85-2.32Z"/>
          <path d="M55.76,168.9c1-.36,1.87.25,2.1.92.34.96-.1,1.91-.91,2.16-.87.26-1.78.05-2.12-.71-.37-.84-.18-1.97.93-2.37Z"/>
          <path d="M161.64,164.7c.95-.45,1.98-.17,2.37.63.36.74.18,1.81-.72,2.26-.65.32-1.62.26-2.11-.44s-.53-1.98.46-2.45Z"/>
          <path d="M161.7,50.36c.89-.46,1.9-.04,2.27.63.43.78.14,1.88-.64,2.29-.72.38-1.71.19-2.18-.5s-.43-1.91.55-2.42Z"/>
          <path d="M147.63,164.77c.89-.52,2.05-.36,2.48.61.26.59.3,1.72-.69,2.18-.63.29-1.61.38-2.22-.5-.37-.54-.49-1.74.43-2.29Z"/>
          <path d="M143.35,50.29c.98-.37,1.87.18,2.16.9.36.88-.09,1.85-.96,2.15-.77.27-1.68.03-2.08-.73s-.22-1.91.88-2.33Z"/>
          <path d="M115.6,164.68c.79-.36,1.92-.18,2.26.6s.23,1.85-.73,2.36c-.65.35-1.71.17-2.23-.67-.43-.69-.24-1.87.7-2.29Z"/>
          <path d="M51.25,9.2c1.08-.25,1.9.42,2.06,1.19.2.95-.37,1.75-1.09,1.93-1.01.25-1.85-.13-2.15-1.06-.25-.77.08-1.8,1.18-2.05Z"/>
          <path d="M79.13,9.16c1.05-.17,1.85.43,1.98,1.13.2,1.07-.26,1.94-1.23,2.08-.8.11-1.72-.19-1.95-1.06s0-1.95,1.2-2.14Z"/>
          <path d="M64.61,164.71c.8-.46,1.87-.22,2.35.5.45.66.45,1.76-.4,2.3-.69.44-1.77.37-2.3-.35-.48-.65-.44-2,.35-2.45Z"/>
          <path d="M78.95,50.25c.9-.29,1.8.16,2.08.92.33.91.15,1.98-.92,2.24-.78.19-1.83.03-2.17-1-.25-.75,0-1.84,1.02-2.16Z"/>
          <path d="M106.42,168.92c1.06-.39,1.88.11,2.2.89.36.88,0,1.84-.95,2.19-.71.26-1.67.02-2.07-.75s-.25-1.94.83-2.33Z"/>
          <path d="M60.26,50.3c1.03-.38,1.99.18,2.27.99s-.04,1.8-.83,2.04c-.9.27-1.88.14-2.25-.76-.29-.71-.23-1.89.8-2.27Z"/>
          <path d="M111.23,9.19c1.06-.29,1.86.31,2.07.94.35,1.06-.2,1.91-.9,2.13-.95.3-1.91-.03-2.17-.69-.37-.95-.11-2.09.99-2.38Z"/>
          <path d="M46.24,50.37c.95-.49,1.85-.08,2.24.64.44.81.16,1.87-.62,2.26s-1.72.18-2.19-.48c-.53-.74-.43-1.9.58-2.42Z"/>
          <path d="M50.82,164.71c.83-.42,1.93-.29,2.4.68.29.59.16,1.63-.67,2.13-.68.41-1.64.36-2.24-.47-.49-.68-.5-1.84.51-2.35Z"/>
          <path d="M134.14,9.17c.94-.19,1.82.19,2.04.88.32.97.03,2.02-.88,2.25s-1.9-.07-2.22-1.01c-.28-.79.04-1.92,1.06-2.12Z"/>
          <path d="M125.38,13.73c.96-.1,1.83.44,1.91,1.32s-.33,1.79-1.3,1.91c-.87.11-1.78-.18-1.93-1.14s.14-1.97,1.32-2.09Z"/>
          <path d="M170.92,155.42c1.02-.33,1.91.18,2.15.87.32.94-.02,1.95-.91,2.21-.81.24-1.71,0-2.11-.77s-.24-1.96.86-2.31Z"/>
          <path d="M78.62,18.53c.94-.54,1.99-.17,2.43.73.34.68.1,1.62-.65,2.08s-1.76.33-2.28-.45c-.43-.64-.4-1.84.5-2.36Z"/>
          <path d="M161.73,45.78c.9-.36,1.82-.11,2.24.68s.22,1.81-.68,2.26c-.75.37-1.78.2-2.24-.62-.42-.74-.22-1.96.68-2.32Z"/>
          <path d="M152.36,45.83c.9-.44,2-.19,2.36.58s.27,1.85-.71,2.29c-.63.28-1.6.26-2.11-.45-.48-.66-.55-1.94.46-2.42Z"/>
          <path d="M101.73,18.41c.93-.3,1.85-.04,2.2.76s.15,1.85-.64,2.22c-.87.4-1.9.13-2.27-.63-.43-.86-.26-2.04.71-2.35Z"/>
          <path d="M129.25,18.46c.99-.46,1.93,0,2.3.72.42.81.09,1.84-.67,2.2s-1.8.23-2.19-.4c-.48-.78-.41-2.08.56-2.52Z"/>
          <path d="M111.23,27.54c1.04-.27,1.94.4,2.11,1.11.25,1.02-.19,1.81-1.05,2.05s-1.84-.19-2.07-.83c-.35-.99-.05-2.06,1-2.33Z"/>
          <path d="M69.41,32.29c.81-.38,1.87-.24,2.28.57.35.69.2,1.87-.69,2.36-.58.32-1.78.22-2.24-.67-.33-.64-.25-1.84.65-2.26Z"/>
          <path d="M74.13,45.76c.93-.33,1.84-.09,2.25.72.38.74.16,1.86-.68,2.24s-1.86.16-2.27-.61-.23-2.02.7-2.35Z"/>
          <path d="M64.76,45.8c1-.46,1.92-.08,2.32.67.43.82.26,1.85-.68,2.23-.72.29-1.66.24-2.14-.44s-.5-2,.5-2.46Z"/>
          <path d="M74.16,32.21c.93-.36,1.8-.03,2.22.75s.09,1.8-.71,2.23-1.84.17-2.24-.6c-.44-.86-.23-2.01.72-2.37Z"/>
          <path d="M152.49,137.09c.85-.4,1.79-.09,2.22.67s.19,1.84-.66,2.3c-.72.39-1.83.16-2.28-.68-.39-.73-.21-1.85.72-2.29Z"/>
          <path d="M120.25,155.46c.99-.41,1.94.02,2.27.69.42.85.05,1.89-.63,2.25-.82.43-1.83.15-2.22-.46-.49-.79-.43-2.06.58-2.48Z"/>
          <path d="M23.16,59.63c.88-.53,2.04-.26,2.46.7.27.62.17,1.61-.68,2.12-.68.42-1.65.32-2.23-.49-.41-.59-.51-1.76.45-2.33Z"/>
          <path d="M32.52,45.82c.8-.39,1.86-.3,2.28.54.33.67.26,1.93-.66,2.34-.62.28-1.83.32-2.29-.66-.29-.63-.26-1.77.67-2.22Z"/>
          <path d="M129.26,155.47c.99-.42,1.92,0,2.26.68.41.83.08,1.86-.63,2.25-.76.41-1.84.15-2.2-.46-.45-.77-.42-2.05.56-2.46Z"/>
          <path d="M41.54,59.6c.88-.44,1.92-.27,2.39.71.28.6.14,1.62-.67,2.15-.65.42-1.66.32-2.22-.49-.46-.66-.45-1.89.51-2.36Z"/>
          <path d="M115.6,59.56c.77-.37,1.9-.18,2.26.62.34.75.26,1.86-.74,2.33-.66.31-1.74.23-2.21-.62-.42-.76-.31-1.86.68-2.33Z"/>
          <path d="M143.32,155.41c1.03-.33,1.92.16,2.18.88.34.92-.02,1.9-.94,2.2-.79.26-1.67.01-2.09-.77s-.27-1.95.84-2.31Z"/>
          <path d="M120.03,59.64c.88-.54,1.96-.27,2.41.47s.31,1.8-.43,2.28-1.64.41-2.17-.19c-.61-.69-.73-2,.2-2.56Z"/>
          <path d="M79.14,41.04c1.11-.25,1.88.47,2,1.32.13.95-.27,1.73-1.39,1.91-.68.11-1.59-.29-1.83-1.15-.23-.82.14-1.84,1.22-2.09Z"/>
          <path d="M133.89,59.57c.86-.38,1.92-.29,2.25.64.27.74.3,1.83-.71,2.3-.66.3-1.81.27-2.22-.62-.34-.75-.27-1.9.68-2.32Z"/>
          <path d="M46.71,41.03c1.18-.17,1.87.5,1.96,1.37.1.96-.43,1.73-1.32,1.86s-1.76-.33-1.92-1.12c-.2-.98.15-1.95,1.29-2.11Z"/>
          <path d="M157.19,64.06c.96-.26,1.88,0,2.2.83s.09,1.85-.64,2.16c-.95.4-2.05.16-2.33-.59-.36-.95-.23-2.12.78-2.4Z"/>
          <path d="M170.7,64.16c.96-.51,1.89-.11,2.28.63.43.81.2,1.84-.64,2.29-.73.39-1.65.17-2.19-.51s-.41-1.9.55-2.41Z"/>
          <path d="M23.44,68.68c1-.45,1.92.13,2.22.95s-.11,1.8-.82,2.06c-.91.33-1.87.1-2.28-.79-.32-.71-.12-1.78.88-2.22Z"/>
          <path d="M161.75,150.89c.9-.37,1.82-.11,2.23.68s.2,1.79-.68,2.26c-.75.4-1.78.2-2.25-.62-.42-.75-.21-1.93.7-2.31Z"/>
          <path d="M134.15,68.6c.91-.23,1.83.2,2.04.9.29.94,0,2.06-.87,2.27-.94.23-1.9-.07-2.24-1.03-.28-.8.05-1.9,1.07-2.15Z"/>
          <path d="M138.96,68.58c.93-.2,1.81.46,1.98,1.21.21.94-.3,1.83-1.13,2-.94.18-1.85-.07-2.12-1.11-.21-.81.14-1.85,1.27-2.09Z"/>
          <path d="M64.82,36.86c.96-.46,1.89-.04,2.25.65.45.86.16,1.86-.63,2.26s-1.72.19-2.2-.49c-.51-.72-.4-1.95.58-2.42Z"/>
          <path d="M55.74,36.78c.99-.34,1.92.21,2.17.88.36.96-.14,1.89-.96,2.17s-1.72.03-2.13-.72-.17-1.96.92-2.33Z"/>
          <path d="M166.82,100.46c.94-.18,1.74.4,1.95,1.22s-.3,1.83-1.18,2.04-1.83-.31-2.03-1.18.25-1.89,1.27-2.08Z"/>
          <path d="M28.15,127.82c1.05-.31,1.88.22,2.13.89.37.98-.09,1.88-.94,2.17s-1.78.05-2.09-.73c-.33-.82-.21-2,.9-2.33Z"/>
          <path d="M9.34,119.06c.88-.46,1.99-.27,2.34.61.28.7.22,1.85-.74,2.28-.61.27-1.64.24-2.11-.44-.5-.72-.55-1.88.51-2.44Z"/>
          <path d="M143.34,68.66c1-.32,1.91.2,2.16.86.35.94-.08,1.96-.93,2.23s-1.71.04-2.12-.8c-.35-.72-.19-1.95.88-2.29Z"/>
          <path d="M152.75,127.78c.89-.24,1.8.24,2.03.91.34,1,0,1.97-.9,2.23s-1.88-.03-2.21-.98c-.28-.82.05-1.88,1.08-2.15Z"/>
          <path d="M92.62,141.62c1.07-.31,1.91.22,2.14.91.33.96-.16,1.89-.94,2.18-.84.31-1.79-.03-2.12-.75-.38-.81-.14-2.02.92-2.34Z"/>
          <path d="M65.07,173.48c1.03-.31,1.94.37,2.14,1.12.25.93-.28,1.75-1.14,2.03s-1.75-.09-1.99-.84c-.3-.94-.11-1.98,1-2.31Z"/>
          <path d="M74.35,173.48c1.01-.31,1.83.34,2.05.95.37,1.01-.19,1.93-.87,2.14-.94.29-1.91-.04-2.18-.72-.36-.91-.1-2.03,1-2.37Z"/>
          <path d="M92.75,173.45c.92-.19,1.81.26,2.01.94.3.98-.19,1.94-.92,2.17-1.05.34-2.01-.02-2.23-.97-.21-.88.09-1.93,1.14-2.14Z"/>
          <path d="M148.13,173.47c1.08-.28,1.89.39,2.08,1.21.21.92-.29,1.74-1.12,1.93-.96.22-1.82-.04-2.12-1.13-.18-.65.08-1.72,1.16-2Z"/>
          <path d="M51.08,155.41c.98-.3,1.9.06,2.18.98.23.75-.06,1.76-.84,2.05-.86.31-1.87.16-2.26-.8-.3-.72-.1-1.93.91-2.23Z"/>
          <path d="M138.83,54.85c1.03-.26,1.88.32,2.08.92.36,1.06-.21,1.91-.92,2.13-.95.29-1.89,0-2.15-.69-.36-.94-.13-2.08.99-2.36Z"/>
          <path d="M60.36,155.37c.91-.23,1.83.08,2.1.88.29.88.1,1.93-.94,2.23-.83.24-1.78.12-2.12-1.04-.2-.69-.11-1.8.96-2.08Z"/>
          <path d="M69.55,155.4c1.05-.37,1.97.21,2.26,1.07.24.73-.15,1.73-.83,1.97-.97.34-1.89.11-2.25-.77-.3-.73-.23-1.9.82-2.27Z"/>
          <path d="M147.64,132.63c.9-.53,2.03-.33,2.48.63.28.6.25,1.64-.69,2.16-.57.32-1.64.33-2.2-.49-.39-.57-.53-1.74.42-2.3Z"/>
          <path d="M102.05,54.82c.94-.19,1.73.33,1.95.98.34,1.03-.18,1.92-.86,2.12-1.1.32-2.07-.07-2.26-.92-.22-1,.11-1.97,1.18-2.18Z"/>
          <path d="M18.88,95.93c.94-.35,1.92.25,2.14.9.33.96-.09,1.92-.94,2.2s-1.69.02-2.11-.76-.2-1.93.91-2.34Z"/>
          <path d="M32.72,68.67c.95-.38,1.88.12,2.13.81.34.94.12,1.98-.92,2.27-.68.19-1.66.09-2.08-.84-.29-.64-.2-1.81.87-2.24Z"/>
          <path d="M32.79,95.95c1-.3,1.88.09,2.15,1.04.23.78-.03,1.7-.84,2s-1.85.07-2.24-.78c-.36-.8-.09-1.96.93-2.27Z"/>
          <path d="M41.74,95.99c1-.44,1.93.14,2.22.99.28.8-.07,1.72-.84,2-.93.34-1.87.18-2.26-.77-.29-.7-.15-1.77.88-2.22Z"/>
          <path d="M13.86,132.62c.9-.54,2.03-.31,2.48.64.29.61.2,1.64-.69,2.15-.63.36-1.64.33-2.23-.47-.42-.57-.48-1.77.44-2.32Z"/>
          <path d="M69.33,123.64c.87-.48,1.96-.23,2.33.54s.32,1.85-.67,2.34c-.57.28-1.61.32-2.13-.49-.38-.59-.48-1.86.47-2.38Z"/>
          <path d="M147.92,64.08c.96-.32,1.83,0,2.17.77.38.84.13,1.86-.62,2.21-.89.42-1.97.13-2.3-.6-.4-.89-.18-2.07.76-2.38Z"/>
          <path d="M50.75,146.4c.9-.55,2.03-.3,2.47.67.28.61.19,1.62-.7,2.14-.64.38-1.62.29-2.21-.47-.47-.6-.51-1.76.43-2.34Z"/>
          <path d="M97.26,155.36c.91-.28,1.77.18,2.05.91.34.89.05,1.95-.89,2.23-.85.25-1.83,0-2.16-1-.25-.76-.02-1.83,1.01-2.14Z"/>
          <path d="M110.74,59.68c.85-.58,1.9-.35,2.41.42.45.67.31,1.71-.46,2.28-.64.48-1.58.36-2.15-.18-.64-.62-.64-1.94.2-2.52Z"/>
          <path d="M14.36,54.84c1.08-.28,1.91.43,2.07,1.18.2.96-.33,1.79-1.09,1.95-1,.21-1.86-.1-2.17-1.08-.23-.71.14-1.78,1.19-2.05Z"/>
          <path d="M9.85,54.82c1.1-.2,1.79.47,1.91,1.12.21,1.15-.33,1.93-1.23,2.06s-1.74-.22-1.98-1.05c-.26-.91.12-1.92,1.29-2.13Z"/>
          <path d="M46.26,59.54c.91-.37,1.83-.1,2.26.73.37.71.17,1.81-.69,2.24-.75.38-1.8.14-2.23-.61-.45-.79-.26-1.99.67-2.36Z"/>
          <path d="M115.52,32.3c.87-.49,1.9-.1,2.31.62.44.78.23,1.81-.7,2.29-.65.33-1.6.26-2.11-.48-.47-.68-.52-1.85.5-2.42Z"/>
          <path d="M175.74,173.46c1.05-.29,1.9.44,2.06,1.19.21.93-.34,1.8-1.1,1.97-.97.21-1.84-.12-2.15-1.1-.22-.71.12-1.77,1.19-2.06Z"/>
          <path d="M46.3,32.26c.85-.36,1.81-.09,2.21.67s.19,1.84-.68,2.26c-.74.36-1.82.14-2.25-.61-.46-.82-.24-1.91.72-2.32Z"/>
          <path d="M134.3,27.51c1.14-.21,1.89.44,1.99,1.34.11.95-.27,1.74-1.35,1.92-.74.12-1.63-.35-1.85-1.17-.24-.88.12-1.89,1.22-2.09Z"/>
          <path d="M92.61,22.98c1.08-.31,1.89.22,2.15.93.34.92-.17,1.89-.92,2.16-.88.31-1.8-.01-2.13-.75-.37-.81-.18-2.02.9-2.34Z"/>
          <path d="M134.05,50.29c1.04-.42,1.86.15,2.14.89.35.91-.05,1.85-.93,2.17-.79.28-1.66.02-2.1-.74s-.14-1.9.89-2.32Z"/>
          <path d="M125.01,50.3c1.03-.39,1.89.11,2.19.88.35.88-.04,1.83-.95,2.18-.72.28-1.64.04-2.07-.74-.4-.73-.24-1.92.83-2.32Z"/>
          <path d="M23.66,100.49c1.1-.28,1.86.44,2.04,1.2.23.97-.3,1.79-1.08,1.95-.99.2-1.86-.11-2.14-1.09-.21-.74.11-1.79,1.18-2.06Z"/>
          <path d="M111.01,50.33c.91-.45,1.89.06,2.2.72.41.88.08,1.91-.61,2.22-.88.4-1.85.2-2.23-.43-.5-.84-.38-2.01.65-2.51Z"/>
          <path d="M9.56,127.84c1.06-.3,1.9.17,2.14.88.33.99-.05,1.93-.91,2.2s-1.72-.01-2.13-.8-.2-1.97.9-2.28Z"/>
          <path d="M50.75,86.96c.92-.53,2.03-.29,2.46.67.27.6.18,1.62-.69,2.12-.67.38-1.63.33-2.2-.47-.43-.59-.51-1.77.43-2.31Z"/>
          <path d="M69.56,23.01c.98-.33,1.96.12,2.19.84.27.87.04,2.02-.9,2.26-.76.2-1.7.1-2.11-.84-.27-.62-.24-1.91.82-2.26Z"/>
          <path d="M97.79,146.12c1.03-.03,1.67.71,1.66,1.62s-.55,1.66-1.56,1.71c-.85.05-1.56-.55-1.71-1.48s.52-1.82,1.6-1.85Z"/>
          <path d="M125.04,141.63c1.01-.32,1.93.18,2.15.85.31.98-.04,1.97-.93,2.24-.82.25-1.7.03-2.11-.79-.37-.74-.19-1.95.89-2.3Z"/>
          <path d="M65.38,146.13c1.04-.06,1.8.51,1.86,1.38.06.95-.43,1.77-1.32,1.89s-1.75-.36-1.91-1.12c-.23-1.09.28-2.08,1.38-2.15Z"/>
          <path d="M55.54,50.37c.9-.49,1.88-.02,2.22.65.44.88.18,1.84-.62,2.26s-1.69.17-2.19-.5c-.54-.72-.41-1.88.59-2.42Z"/>
          <path d="M18.72,137.08c.87-.4,1.77-.1,2.2.68s.22,1.83-.65,2.27c-.78.39-1.82.2-2.26-.63s-.26-1.86.72-2.31Z"/>
          <path d="M143.75,100.45c.98-.14,1.78.58,1.86,1.36.11,1-.42,1.72-1.4,1.93-.79.17-1.6-.42-1.85-1.17-.33-.99.34-1.96,1.39-2.11Z"/>
          <path d="M171.23,54.8c1.09-.18,1.8.49,1.91,1.16.18,1.14-.3,1.97-1.23,2.05s-1.77-.19-1.99-1.06c-.22-.91.13-1.96,1.3-2.15Z"/>
          <path d="M171.21,100.47c1.13-.18,1.89.53,1.95,1.38.07.97-.37,1.8-1.39,1.89-.85.08-1.68-.31-1.86-1.17-.19-.92.19-1.93,1.29-2.11Z"/>
          <path d="M69.33,18.53c.89-.49,1.95-.22,2.34.54s.28,1.91-.71,2.35c-.56.25-1.6.31-2.12-.5-.37-.58-.44-1.88.49-2.39Z"/>
          <path d="M18.88,50.28c.93-.36,1.89.25,2.14.91.34.91-.14,1.89-.94,2.18s-1.69-.01-2.1-.74c-.43-.79-.21-1.92.9-2.35Z"/>
          <path d="M18.97,127.8c.9-.21,1.79.27,2.02.88.39,1.03-.06,1.95-.9,2.22-.95.31-1.86-.05-2.21-.98-.3-.81.07-1.89,1.09-2.12Z"/>
          <path d="M37.44,82.44c1-.32,1.9.2,2.1.87.29.98-.07,1.93-.9,2.17-.87.26-1.74,0-2.11-.74-.4-.81-.21-1.95.9-2.31Z"/>
          <path d="M64.59,13.98c.84-.44,1.85-.35,2.41.45.4.57.46,1.75-.44,2.32-.6.38-1.74.33-2.27-.36-.5-.65-.51-1.99.31-2.42Z"/>
          <path d="M46.23,105.26c.9-.47,1.96-.14,2.3.63s.14,1.87-.71,2.28c-.69.34-1.66.17-2.15-.46-.55-.71-.45-1.92.56-2.45Z"/>
          <path d="M55.73,141.61c1.06-.34,1.89.22,2.14.92.34.94-.12,1.9-.92,2.18-.85.3-1.75-.04-2.11-.77-.4-.8-.18-1.99.9-2.34Z"/>
          <path d="M83.41,164.64c.97-.32,1.84-.09,2.24.76.36.77.16,1.79-.68,2.22-.78.4-1.87.11-2.25-.61-.44-.85-.27-2.05.69-2.36Z"/>
          <path d="M143.19,45.78c.84-.39,1.79-.09,2.24.67s.21,1.82-.71,2.25c-.71.33-1.78.22-2.25-.6-.43-.75-.19-1.9.72-2.32Z"/>
          <path d="M129.33,45.75c.94-.34,1.81-.05,2.23.75.39.76.17,1.81-.67,2.19s-1.86.18-2.27-.6-.22-2.01.71-2.35Z"/>
          <path d="M124.81,105.27c.87-.49,1.94-.17,2.31.61s.26,1.83-.69,2.3c-.6.3-1.62.22-2.12-.48s-.49-1.87.51-2.43Z"/>
          <path d="M96.91,164.75c.92-.5,1.99-.34,2.36.55.29.71.3,1.87-.71,2.31-.56.25-1.57.31-2.12-.47-.4-.57-.45-1.89.47-2.39Z"/>
          <path d="M18.64,91.46c.87-.49,1.9-.06,2.28.64.43.79.22,1.84-.68,2.27-.69.33-1.61.19-2.14-.47s-.46-1.89.53-2.44Z"/>
          <path d="M156.89,164.77c.89-.53,1.96-.3,2.42.47.37.62.32,1.84-.4,2.26s-1.71.31-2.2-.2c-.63-.65-.7-2.02.18-2.54Z"/>
          <path d="M166.22,164.74c.9-.54,2.01-.25,2.44.67.3.62.2,1.63-.65,2.13-.65.39-1.68.35-2.21-.48-.38-.6-.52-1.76.42-2.32Z"/>
          <path d="M175.23,164.75c.87-.52,2.01-.25,2.46.65.3.61.2,1.65-.67,2.14-.66.36-1.65.32-2.22-.47-.42-.59-.51-1.75.44-2.32Z"/>
          <path d="M46.47,168.91c.99-.35,1.88.22,2.12.92.32.94-.08,1.92-.92,2.17s-1.75,0-2.12-.73c-.42-.84-.2-1.95.92-2.35Z"/>
          <path d="M41.77,109.73c1.01-.29,1.91.04,2.22,1.04.22.69-.01,1.73-.88,2.01-.79.26-1.87.17-2.24-.83-.26-.71-.15-1.93.9-2.23Z"/>
          <path d="M46.45,109.74c1.02-.35,1.88.21,2.13.91.33.94-.09,1.9-.91,2.2s-1.71-.02-2.09-.76c-.42-.81-.23-1.96.88-2.34Z"/>
          <path d="M60.36,168.9c.87-.21,1.94,0,2.12.82.2.88.13,2-.96,2.29-.74.2-1.81.1-2.14-1.03-.19-.66-.1-1.81.97-2.07Z"/>
          <path d="M97.14,168.92c.99-.37,1.91.16,2.18.87.33.88.08,1.96-.91,2.24-.71.2-1.68.09-2.07-.8-.29-.67-.27-1.9.81-2.31Z"/>
          <path d="M37.3,91.4c.84-.39,1.81-.07,2.18.71s.19,1.85-.66,2.24c-.8.37-1.86.17-2.27-.6-.45-.83-.18-1.91.76-2.35Z"/>
          <path d="M138.52,109.8c1.06-.42,1.95.01,2.29.73.41.86.07,1.85-.65,2.2-.83.39-1.84.21-2.23-.42-.46-.76-.34-2.13.59-2.5Z"/>
          <path d="M134.04,155.43c1-.36,1.92.13,2.15.85.3.92,0,1.92-.92,2.21-.78.25-1.66.06-2.08-.77-.35-.71-.22-1.91.85-2.29Z"/>
          <path d="M41.47,91.5c.86-.51,2.05-.24,2.44.69.26.61.2,1.69-.63,2.13-.72.39-1.72.33-2.28-.51-.38-.57-.47-1.76.46-2.31Z"/>
          <path d="M170.75,132.52c.86-.32,1.91-.18,2.27.66.32.74.22,1.84-.71,2.29-.69.33-1.8.16-2.21-.61s-.33-1.97.66-2.34Z"/>
          <path d="M13.86,86.97c.91-.53,2.03-.29,2.47.64.3.64.24,1.61-.7,2.15-.58.34-1.6.26-2.2-.48-.44-.55-.5-1.77.42-2.31Z"/>
          <path d="M120.83,41.02c1.01-.14,1.83.74,1.88,1.39.09,1.06-.61,1.71-1.39,1.85-.98.17-1.76-.43-1.9-1.11-.23-1.09.23-1.96,1.4-2.13Z"/>
          <path d="M87.64,137.16c.88-.5,1.94-.23,2.33.54s.28,1.87-.68,2.36c-.55.28-1.63.27-2.15-.51-.4-.59-.43-1.86.5-2.39Z"/>
          <path d="M134.05,137.05c.99-.41,1.92.1,2.17.89.27.86-.06,1.87-.96,2.21-.76.29-1.65.02-2.08-.77-.4-.74-.24-1.87.86-2.33Z"/>
          <path d="M83.74,41.02c.93-.18,1.73.37,1.97.95.43,1.06-.18,1.92-.88,2.15-1.06.35-2.04-.07-2.26-.96s.13-1.94,1.17-2.15Z"/>
          <path d="M124.8,77.97c.91-.48,1.89-.12,2.31.61s.21,1.83-.67,2.3c-.66.36-1.62.24-2.14-.51-.46-.66-.52-1.86.49-2.4Z"/>
          <path d="M18.99,114.28c.85-.22,1.83.26,2.03.87.33.99-.1,2.01-.92,2.24-.96.27-1.92,0-2.23-.98-.25-.8.1-1.87,1.12-2.13Z"/>
          <path d="M56.02,41.04c1.12-.17,1.88.57,1.97,1.36.12,1.01-.48,1.7-1.36,1.87-.93.18-1.7-.33-1.91-1.14-.25-.95.17-1.92,1.31-2.09Z"/>
          <path d="M28.44,114.26c1.07-.17,1.78.54,1.9,1.15.24,1.18-.33,1.9-1.22,2.05-.95.15-1.72-.19-1.95-1.06s.08-1.96,1.27-2.14Z"/>
          <path d="M41.96,114.29c1.08-.28,1.89.45,2.06,1.2.22.96-.33,1.77-1.11,1.95-.96.23-1.85-.1-2.12-1.08-.2-.73.11-1.8,1.17-2.07Z"/>
          <path d="M9.42,59.55c.84-.36,1.88-.2,2.22.67.29.74.25,1.86-.7,2.28-.73.32-1.82.21-2.23-.62s-.29-1.9.71-2.33Z"/>
          <path d="M170.95,127.83c1.06-.34,1.87.2,2.12.9.34.95-.09,1.93-.92,2.18s-1.75,0-2.13-.79-.13-1.96.92-2.3Z"/>
          <path d="M41.53,77.94c.78-.38,1.92-.2,2.3.56.36.71.3,1.87-.68,2.41-.58.32-1.79.17-2.25-.71-.32-.61-.28-1.82.62-2.26Z"/>
          <path d="M23.46,77.86c.9-.28,1.91-.07,2.16.86.21.79.2,1.92-.96,2.28-.64.2-1.74-.03-2.12-1.03-.25-.65-.08-1.8.92-2.11Z"/>
          <path d="M111.23,168.89c1.06-.29,1.89.27,2.08.97.27.99-.18,1.91-.91,2.13-.94.29-1.87-.06-2.14-.72-.39-.96-.17-2.07.96-2.38Z"/>
          <path d="M92.62,36.77c1.05-.34,1.87.22,2.14.93.36.93-.1,1.86-.92,2.13s-1.77.02-2.11-.72c-.38-.83-.21-1.99.89-2.35Z"/>
          <path d="M125.3,114.25c1.06-.15,1.82.52,1.95,1.15.23,1.13-.33,1.93-1.23,2.06s-1.73-.2-1.97-1.06.05-1.98,1.25-2.15Z"/>
          <path d="M125.14,127.79c.91-.23,1.8.21,2.04.89.34.98,0,1.94-.91,2.24s-1.84-.06-2.18-1c-.3-.8.04-1.87,1.06-2.13Z"/>
          <path d="M143.11,91.47c.92-.52,1.88-.1,2.29.64s.23,1.86-.66,2.28c-.67.32-1.67.21-2.16-.47s-.45-1.89.52-2.44Z"/>
          <path d="M9.43,77.9c.84-.4,1.78-.05,2.19.69.43.8.22,1.83-.68,2.28-.73.37-1.8.14-2.25-.64s-.2-1.88.74-2.33Z"/>
          <path d="M161.69,91.47c.95-.51,1.89-.11,2.29.64.44.81.23,1.81-.68,2.26-.69.34-1.63.22-2.14-.46s-.44-1.91.53-2.44Z"/>
          <path d="M41.46,86.96c.87-.53,2.02-.25,2.46.66.29.6.2,1.63-.71,2.13-.61.34-1.62.31-2.18-.48-.41-.58-.5-1.75.43-2.32Z"/>
          <path d="M46.44,95.97c1.05-.32,1.9.18,2.15.89.34.94-.1,1.87-.93,2.17s-1.71-.02-2.1-.76c-.42-.79-.21-1.97.88-2.31Z"/>
          <path d="M55.74,95.94c1.05-.39,1.84.23,2.11.94.35.91-.09,1.87-.9,2.15s-1.75-.03-2.11-.75c-.41-.81-.17-1.95.9-2.34Z"/>
          <path d="M129.4,95.96c.86-.34,1.82.03,2.16.72.43.88.09,1.86-.66,2.24-.91.45-1.93.2-2.32-.62-.4-.86-.14-1.95.82-2.34Z"/>
          <path d="M166.5,95.98c.98-.46,1.9.17,2.22.97s-.1,1.71-.84,2.03c-.9.39-1.81.15-2.25-.79-.3-.66-.12-1.73.87-2.2Z"/>
          <path d="M19.11,100.46c1.1-.16,1.83.47,1.96,1.16.21,1.12-.29,1.97-1.22,2.08s-1.72-.23-1.99-1.1.15-1.97,1.26-2.14Z"/>
          <path d="M28.4,100.46c1.1-.14,1.83.47,1.95,1.15.2,1.12-.26,1.99-1.21,2.1s-1.72-.23-1.97-1.12.09-1.99,1.23-2.13Z"/>
          <path d="M33.04,100.46c1.02-.18,1.82.41,1.93,1.36.09.81-.25,1.75-1.31,1.94-.67.12-1.67-.3-1.89-1.19-.21-.83.21-1.92,1.28-2.1Z"/>
          <path d="M129.54,100.49c1.1-.29,1.89.43,2.12,1.21.26.86-.38,1.72-1.08,1.99-.88.34-1.84-.24-2.05-.86-.31-.92-.06-2.06,1-2.34Z"/>
          <path d="M46.47,114.33c1.01-.32,1.84.28,2.09.9.4.99-.11,1.94-.89,2.17-.88.26-1.83.01-2.15-.76-.35-.84-.15-1.96.96-2.31Z"/>
          <path d="M138.94,114.27c.92-.19,1.71.39,1.93,1,.39,1.08-.2,1.89-.88,2.1-1.12.36-2.03-.06-2.24-.93-.23-.98.14-1.95,1.19-2.17Z"/>
          <path d="M143.47,114.29c.91-.25,1.76.23,2.02.92.35.95-.05,1.94-.91,2.18-.94.27-1.92,0-2.21-.98-.24-.8.09-1.85,1.1-2.12Z"/>
          <path d="M166.73,114.29c1.05-.27,1.88.45,2.05,1.19.21.96-.31,1.77-1.11,1.94-.96.21-1.85-.08-2.12-1.12-.18-.68.1-1.74,1.18-2.01Z"/>
          <path d="M18.72,119c.82-.39,1.8-.08,2.22.7s.23,1.82-.72,2.26c-.73.33-1.78.19-2.23-.63s-.25-1.87.73-2.33Z"/>
          <path d="M23.16,119.09c.91-.53,2.04-.3,2.45.7.26.62.19,1.59-.69,2.1-.68.4-1.62.36-2.2-.49-.4-.58-.52-1.76.43-2.31Z"/>
          <path d="M161.68,119.06c.89-.49,1.9-.14,2.32.65.38.72.25,1.83-.7,2.24-.67.29-1.59.24-2.1-.45s-.56-1.88.48-2.44Z"/>
          <path d="M78.64,123.63c.88-.53,1.88-.15,2.3.58s.3,1.82-.66,2.3c-.61.3-1.57.25-2.13-.5-.44-.59-.45-1.82.49-2.38Z"/>
          <path d="M133.84,123.63c.9-.51,1.86-.15,2.27.6s.24,1.84-.64,2.29c-.69.35-1.63.23-2.15-.5-.48-.68-.46-1.83.53-2.39Z"/>
          <path d="M37.44,127.84c1.1-.32,1.85.23,2.09.92.36,1-.08,1.91-.89,2.13-.89.25-1.82.01-2.15-.74-.34-.81-.1-2.01.94-2.31Z"/>
          <path d="M51.26,127.8c1.04-.29,1.89.45,2.05,1.2.2.92-.34,1.78-1.1,1.95-.95.21-1.86-.14-2.13-1.07-.22-.76.1-1.79,1.19-2.09Z"/>
          <path d="M65.05,127.8c1.03-.33,1.84.31,2.09.96.37.96-.16,1.9-.93,2.14-.87.27-1.83-.04-2.12-.75-.36-.87-.13-2.01.96-2.36Z"/>
          <path d="M106.45,127.84c1.05-.32,1.88.19,2.16.89.36.94-.04,1.93-.91,2.2-.82.25-1.73,0-2.13-.81-.37-.75-.21-1.95.88-2.29Z"/>
          <path d="M115.86,127.8c.88-.25,1.81.22,2.04.88.34.96-.03,1.98-.91,2.24s-1.84-.04-2.21-1c-.29-.76.09-1.85,1.08-2.13Z"/>
          <path d="M134.34,127.79c1.03-.19,1.8.46,1.91,1.12.19,1.14-.29,1.93-1.24,2.06-.88.12-1.74-.2-1.96-1.04-.25-.94.07-1.92,1.28-2.14Z"/>
          <path d="M175.82,127.77c.91-.18,1.83.47,2,1.22.22.93-.32,1.77-1.14,1.96-.91.21-1.81-.11-2.12-1.07-.25-.79.2-1.9,1.26-2.11Z"/>
          <path d="M23.15,132.62c.94-.53,2.04-.31,2.47.7.25.6.21,1.59-.69,2.09-.64.36-1.65.31-2.2-.47-.41-.58-.5-1.79.43-2.31Z"/>
          <path d="M41.47,132.62c.9-.55,2.04-.3,2.45.66.27.61.2,1.64-.68,2.14-.64.36-1.64.34-2.22-.48-.38-.54-.43-1.77.45-2.31Z"/>
          <path d="M69.31,132.61c.85-.48,1.97-.27,2.37.54.33.67.31,1.86-.71,2.32-.55.25-1.5.27-2.1-.49-.42-.54-.49-1.84.44-2.37Z"/>
          <path d="M78.62,132.6c.84-.47,1.99-.25,2.34.55.32.73.35,1.85-.72,2.33-.55.25-1.48.26-2.08-.51-.44-.56-.53-1.81.46-2.37Z"/>
          <path d="M101.42,132.66c.86-.57,1.93-.36,2.42.41.42.66.39,1.73-.44,2.29-.62.42-1.56.34-2.15-.2-.62-.58-.67-1.95.16-2.5Z"/>
          <path d="M166.21,132.62c.91-.54,2.01-.3,2.46.66.28.6.24,1.62-.66,2.13-.62.35-1.66.33-2.21-.48-.39-.58-.51-1.76.41-2.31Z"/>
          <path d="M92.62,9.22c1.1-.28,1.89.2,2.11.9.31,1.01-.14,1.89-.91,2.16-.9.31-1.82-.02-2.13-.75-.36-.84-.13-2.04.93-2.31Z"/>
          <path d="M69.35,137.13c.81-.49,1.97-.16,2.31.57s.33,1.85-.67,2.34c-.58.28-1.57.28-2.13-.53-.37-.54-.46-1.81.48-2.38Z"/>
          <path d="M96.93,137.15c.91-.53,1.88-.18,2.31.59.4.73.28,1.83-.66,2.3-.59.3-1.63.26-2.14-.5-.42-.61-.43-1.85.49-2.39Z"/>
          <path d="M111.04,137.06c.95-.34,1.83-.07,2.2.75s.11,1.81-.66,2.21c-.84.44-1.88.13-2.28-.62-.45-.84-.2-2.01.73-2.35Z"/>
          <path d="M138.68,137.05c.91-.41,1.76,0,2.13.77.39.81.09,1.79-.66,2.19-.86.45-1.89.11-2.26-.6-.47-.9-.14-1.95.79-2.37Z"/>
          <path d="M143.14,137.12c.91-.53,1.85-.07,2.28.65.48.79.19,1.79-.68,2.27-.7.38-1.62.21-2.15-.5s-.44-1.85.55-2.42Z"/>
          <path d="M46.45,141.63c1.05-.33,1.86.22,2.14.9.38.92-.17,1.89-.92,2.18-.86.33-1.73-.05-2.12-.78-.42-.78-.17-1.96.9-2.3Z"/>
          <path d="M157.42,146.15c1.06-.27,1.9.44,2.07,1.17.21.96-.33,1.77-1.02,2-.98.33-1.87-.21-2.08-.84-.34-1.03-.04-2.05,1.03-2.33Z"/>
          <path d="M106.2,146.38c.83-.49,1.99-.28,2.39.58.32.67.24,1.79-.76,2.32-.54.28-1.53.26-2.09-.48-.47-.62-.54-1.83.46-2.42Z"/>
          <path d="M138.6,150.85c.93-.28,1.87-.02,2.24.76s.07,1.81-.68,2.21c-.88.47-1.87.17-2.25-.61-.42-.86-.29-2.06.7-2.36Z"/>
          <path d="M79.35,159.91c1.09-.02,1.74.61,1.8,1.39.09,1.13-.49,1.8-1.57,1.85-.8.04-1.59-.38-1.71-1.31s.21-1.89,1.47-1.92Z"/>
          <path d="M143.61,159.91c1.06-.15,1.82.48,1.96,1.15.24,1.11-.3,1.96-1.22,2.06-.96.11-1.72-.14-1.98-1.08-.24-.87.04-1.96,1.24-2.13Z"/>
          <path d="M55.59,164.65c.89-.37,1.82-.1,2.22.72.35.71.16,1.84-.68,2.25-.76.37-1.82.1-2.25-.64-.46-.8-.23-1.93.71-2.33Z"/>
          <path d="M120,164.77c.88-.55,1.95-.3,2.44.43.46.69.33,1.72-.46,2.28-.68.49-1.57.39-2.14-.2-.61-.63-.74-1.96.17-2.52Z"/>
          <path d="M129.54,173.49c1.08-.31,1.94.33,2.11,1.11.21.97-.24,1.71-1.12,2.02-.79.28-1.73-.17-1.97-.83-.35-.96-.08-2,.98-2.3Z"/>
          <path d="M134.32,173.42c1.1-.17,1.8.47,1.94,1.18.21,1.07-.3,1.91-1.22,2.03s-1.77-.16-1.96-1.05.04-1.97,1.24-2.16Z"/>
          <path d="M152.91,173.43c1-.19,1.84.48,1.96,1.13.2,1.08-.33,1.93-1.24,2.07s-1.71-.19-1.97-1.06.1-1.92,1.25-2.14Z"/>
          <path d="M69.82,9.17c1.05-.17,1.84.39,2,1.11.23,1.05-.21,1.91-1.23,2.09-.8.13-1.66-.15-1.92-1.11-.22-.77-.02-1.9,1.16-2.09Z"/>
          <path d="M101.94,9.22c1.06-.26,1.93.2,2.09.89.25,1.05-.16,1.92-.92,2.17-.93.31-1.84-.04-2.13-.75-.38-.91-.17-2.04.96-2.31Z"/>
          <path d="M138.3,14.03c.88-.54,1.94-.37,2.43.41.42.66.39,1.74-.44,2.27-.63.4-1.63.37-2.15-.16-.61-.63-.71-1.98.16-2.52Z"/>
          <path d="M60.55,27.53c1.03-.24,1.84.36,2.03,1.22s-.3,1.78-1.17,1.99-1.7-.22-1.99-1.02.03-1.93,1.13-2.19Z"/>
          <path d="M111.04,32.21c.91-.32,1.85-.04,2.2.76s.11,1.83-.66,2.22c-.84.41-1.88.08-2.26-.61-.47-.85-.22-2.03.73-2.36Z"/>
          <path d="M46.46,36.78c1-.33,1.88.2,2.15.94.32.89-.12,1.87-.93,2.13s-1.73,0-2.1-.74c-.42-.83-.24-1.96.89-2.33Z"/>
          <path d="M129.39,36.78c.88-.35,1.79.03,2.16.72.45.86.09,1.85-.66,2.23-.86.44-1.96.17-2.31-.59-.41-.9-.15-1.98.81-2.36Z"/>
          <path d="M88.26,41.02c.92-.15,1.7.47,1.84,1.12.24,1.1-.17,1.96-1.23,2.1-.87.11-1.78-.22-1.98-1.31-.14-.76.33-1.73,1.37-1.9Z"/>
          <path d="M102.23,41.02c1.08-.16,1.78.7,1.85,1.39.12,1.06-.53,1.7-1.35,1.84-.96.16-1.72-.45-1.86-1.09-.25-1.12.2-1.98,1.36-2.15Z"/>
          <path d="M106.31,45.79c.8-.36,1.87-.18,2.23.61.34.74.27,1.89-.69,2.3-.69.29-1.8.21-2.26-.62-.4-.73-.23-1.87.71-2.29Z"/>
          <path d="M60.54,54.84c1.09-.27,1.89.43,2.05,1.2.19.94-.35,1.79-1.07,1.94-1.03.22-1.87-.13-2.16-1.08-.24-.75.12-1.8,1.18-2.06Z"/>
          <path d="M116.01,54.82c1.03-.19,1.85.45,1.98,1.12.21,1.08-.27,1.92-1.25,2.08-.81.13-1.67-.21-1.96-1.07-.28-.81.09-1.92,1.23-2.13Z"/>
          <path d="M152.9,54.81c1.04-.16,1.83.49,1.95,1.13.22,1.13-.32,1.9-1.25,2.05s-1.7-.19-1.95-1.05.1-1.95,1.25-2.13Z"/>
          <path d="M162.19,54.81c1.06-.15,1.81.46,1.94,1.16.21,1.06-.4,1.9-1.25,2.04-.92.16-1.77-.22-1.96-1.04-.22-.97.03-1.98,1.26-2.16Z"/>
          <path d="M32.65,64.09c1-.38,1.98.02,2.23.84s.12,1.9-.96,2.25c-.6.19-1.69.08-2.05-.8-.26-.64-.28-1.88.78-2.28Z"/>
          <path d="M50.74,73.44c.91-.53,2.03-.29,2.47.67.28.61.2,1.62-.69,2.13-.62.35-1.64.26-2.21-.48-.47-.6-.51-1.78.43-2.32Z"/>
          <path d="M32.45,77.99c.84-.5,1.97-.22,2.34.52s.34,1.87-.64,2.4c-.54.29-1.65.14-2.13-.55-.41-.58-.5-1.82.43-2.37Z"/>
          <path d="M143.44,82.37c.9-.26,1.77.23,2.05.94.35.89-.08,1.89-.93,2.19s-1.87-.05-2.18-.94c-.29-.82.06-1.89,1.06-2.18Z"/>
          <path d="M129.86,86.68c.96-.06,1.74.62,1.86,1.4.14.92-.59,1.68-1.32,1.84-.95.21-1.78-.4-1.93-1.09-.24-1.12.28-2.07,1.39-2.15Z"/>
          <path d="M27.68,87.01c.81-.58,1.91-.35,2.45.36.43.58.47,1.82-.45,2.35-.53.3-1.56.36-2.15-.22-.55-.53-.67-1.91.15-2.5Z"/>
          <path d="M152.47,132.53c.8-.36,1.89-.19,2.26.64.32.73.24,1.84-.76,2.31-.67.31-1.69.21-2.17-.64-.42-.75-.31-1.87.67-2.31Z"/>
          <path d="M147.63,73.44c.88-.52,2.04-.33,2.47.64.26.59.26,1.63-.69,2.16-.55.31-1.62.3-2.18-.49-.4-.57-.54-1.74.41-2.3Z"/>
          <path d="M18.61,73.4c.89-.48,1.96-.22,2.34.61.34.74.27,1.81-.73,2.26-.57.26-1.6.21-2.11-.43-.54-.68-.5-1.9.5-2.44Z"/>
          <path d="M56.01,100.46c1.1-.15,1.78.56,1.91,1.17.25,1.18-.36,1.9-1.22,2.05-.96.16-1.76-.25-1.98-1.08-.24-.88.17-1.98,1.3-2.14Z"/>
          <path d="M157.68,73.17c1.05-.14,1.79.67,1.86,1.4.09,1-.6,1.71-1.29,1.83-1.04.19-1.83-.48-1.96-1.1-.24-1.13.25-1.97,1.38-2.13Z"/>
          <path d="M157.56,141.55c.92-.2,1.68.43,1.88,1.08.31,1.01-.25,1.87-.88,2.06-1.12.34-2.09-.13-2.24-.91-.22-1.13.12-1.99,1.24-2.24Z"/>
          <path d="M23.4,95.97c1.03-.41,1.96.17,2.26,1.05.26.76-.04,1.7-.85,1.98-.87.3-1.84.1-2.26-.81-.3-.66-.17-1.82.84-2.22Z"/>
          <path d="M139.08,41.03c1.08-.12,1.83.63,1.89,1.38.08.99-.57,1.75-1.28,1.86-1.04.17-1.83-.44-1.95-1.12-.2-1.1.2-2,1.34-2.12Z"/>
          <path d="M50.8,41.26c.83-.4,1.84-.31,2.33.55.35.61.32,1.74-.49,2.19-.76.42-1.86.38-2.43-.5-.39-.6-.32-1.81.59-2.24Z"/>
          <path d="M23.33,45.78c1.01-.39,1.94-.09,2.29.78.32.79.1,1.88-1.03,2.21-.57.17-1.44.14-1.97-.76-.34-.58-.37-1.82.71-2.23Z"/>
          <path d="M60.89,146.12c1.01-.03,1.73.65,1.71,1.61-.02.86-.51,1.64-1.6,1.69-.74.04-1.55-.51-1.69-1.44s.49-1.84,1.58-1.87Z"/>
          <path d="M83.64,9.22c1.05-.31,1.82.27,2.08.92.41,1-.16,1.87-.92,2.13-.88.3-1.82-.05-2.14-.74-.41-.9-.14-1.98.97-2.32Z"/>
          <path d="M157.26,50.3c.95-.32,1.78.02,2.12.85s.04,1.82-.63,2.12c-.93.42-2.08.08-2.33-.58-.38-.99-.12-2.06.85-2.39Z"/>
          <path d="M28.43,54.81c1.06-.16,1.8.47,1.94,1.15.22,1.08-.36,1.92-1.22,2.04-.94.13-1.79-.16-1.98-1.04-.2-.93.04-1.97,1.26-2.15Z"/>
          <path d="M120.95,146.11c.95-.12,1.64.73,1.72,1.44.11,1.01-.64,1.69-1.29,1.84-1.07.25-1.75-.52-1.92-1.13-.34-1.22.35-2.01,1.49-2.16Z"/>
          <path d="M157.22,137.02c.94-.3,1.85,0,2.17.85.3.8.07,1.84-.64,2.17-.97.45-1.94.07-2.29-.64-.46-.95-.25-2.07.76-2.39Z"/>
          <path d="M134.58,146.13c1.14-.08,1.72.76,1.72,1.63,0,.95-.58,1.64-1.58,1.68-.8.03-1.6-.69-1.71-1.44-.15-.96.48-1.79,1.58-1.87Z"/>
          <path d="M138.31,119.14c.88-.55,1.92-.33,2.42.42.45.69.38,1.71-.46,2.25-.66.42-1.58.41-2.13-.16-.61-.64-.71-1.97.17-2.51Z"/>
          <path d="M14.16,137.04c.95-.3,1.95.01,2.24.97.22.72-.07,1.68-.91,2.06-.76.34-1.71.12-2.2-.81-.35-.66-.14-1.91.87-2.22Z"/>
          <path d="M129.02,119.12c.87-.56,1.95-.33,2.42.44.43.7.41,1.72-.47,2.27-.64.4-1.55.37-2.13-.19s-.64-2,.18-2.52Z"/>
          <path d="M55.5,119.04c.9-.47,1.92-.11,2.31.67.37.73.21,1.84-.73,2.24-.68.29-1.61.25-2.1-.47s-.52-1.9.52-2.43Z"/>
          <path d="M138.84,127.82c1-.27,1.83.37,2.03.97.34,1.02-.23,1.92-.88,2.12-1.01.31-1.87-.08-2.13-.71-.4-.99-.17-2.07.97-2.37Z"/>
          <path d="M37.29,119c.84-.39,1.79-.11,2.2.72.34.69.17,1.82-.69,2.22-.75.35-1.8.14-2.22-.6-.47-.83-.26-1.89.71-2.34Z"/>
          <path d="M129.66,68.59c.95-.23,1.7.33,1.97,1.01.37.96-.27,1.87-.92,2.1-1.09.38-1.98-.09-2.22-.93-.28-.98.14-1.93,1.17-2.18Z"/>
          <path d="M170.68,119.07c.92-.51,1.89-.15,2.33.63.4.71.18,1.78-.7,2.28-.62.35-1.6.19-2.1-.48s-.53-1.87.48-2.43Z"/>
          <path d="M129.64,9.17c.93-.18,1.75.33,1.98.96.37,1.01-.25,1.89-.91,2.12-1.05.38-2.03-.08-2.23-.92-.23-.97.11-1.97,1.16-2.17Z"/>
          <path d="M51.27,173.46c1.04-.27,1.89.45,2.04,1.19.19.94-.37,1.78-1.1,1.95-1.02.24-1.85-.07-2.13-1.12-.18-.69.08-1.73,1.19-2.02Z"/>
          <path d="M60.65,173.43c.99-.18,1.81.44,1.93,1.36.1.85-.22,1.74-1.37,1.91-.62.1-1.58-.31-1.84-1.17s.22-1.92,1.28-2.11Z"/>
          <path d="M46.73,54.82c1.06-.17,1.81.47,1.93,1.15.19,1.09-.38,1.92-1.22,2.04-.93.13-1.74-.27-2-1.06-.3-.93.13-1.95,1.29-2.14Z"/>
          <path d="M147.66,59.64c.81-.56,1.92-.22,2.37.49.42.67.27,1.79-.44,2.26s-1.67.28-2.15-.18c-.72-.69-.66-1.96.23-2.58Z"/>
          <path d="M129.54,54.85c.98-.25,1.88.34,2.1.94.37.98-.27,1.91-.93,2.13-.94.31-1.87-.02-2.14-.7-.37-.93-.16-2.07.96-2.36Z"/>
          <path d="M46.33,163.05c-.79-.2-.93-.96-.96-1.5-.03-.6.16-1.23.87-1.45.76-.23,1.67-.28,2.11.37.38.56.51,1.34.11,1.97s-1.13.88-2.13.62Z"/>
          <path d="M138.32,146.43c.86-.55,1.94-.32,2.43.46.4.64.28,1.71-.49,2.24-.65.45-1.6.4-2.1-.16-.61-.67-.72-1.98.16-2.54Z"/>
          <path d="M170.73,146.32c.87-.36,1.92-.29,2.31.66.27.67.28,1.81-.76,2.29-.6.27-1.69.17-2.17-.63-.42-.7-.29-1.94.62-2.32Z"/>
          <path d="M120.02,132.66c.84-.56,1.94-.39,2.41.42.39.68.36,1.71-.48,2.25-.65.42-1.55.42-2.11-.16-.61-.63-.66-1.95.19-2.51Z"/>
          <path d="M170.75,73.35c.83-.36,1.87-.18,2.28.68.32.67.24,1.86-.77,2.25-.63.25-1.73.19-2.18-.58s-.25-1.96.67-2.35Z"/>
          <path d="M106.22,160.13c.89-.37,1.99-.24,2.35.64.27.66.31,1.85-.62,2.23-.61.25-1.78.31-2.31-.51-.39-.6-.38-1.95.57-2.35Z"/>
          <path d="M129.02,14.02c.87-.56,1.92-.33,2.44.46.41.62.35,1.66-.48,2.23-.6.41-1.62.4-2.12-.16-.57-.63-.69-1.98.16-2.53Z"/>
          <path d="M120.37,36.79c.89-.34,1.84-.02,2.17.76.36.85.09,1.81-.7,2.21-.86.43-1.93.13-2.28-.62-.43-.9-.15-1.99.81-2.36Z"/>
          <path d="M166.84,173.43c.99-.17,1.76.47,1.94,1.29.2.89-.36,1.73-1.1,1.9-1.02.22-1.86-.12-2.14-1.14-.21-.79.23-1.86,1.3-2.05Z"/>
          <path d="M116.27,159.92c1.11-.06,1.7.66,1.76,1.37.1,1.19-.53,1.84-1.56,1.87-.84.02-1.62-.45-1.78-1.34s.47-1.85,1.57-1.9Z"/>
          <path d="M157.18,155.46c.98-.44,1.87.06,2.19.8.36.84-.01,1.84-.63,2.11-.96.42-1.91.22-2.24-.4-.48-.9-.32-2.07.68-2.52Z"/>
          <path d="M124.82,73.34c.88-.35,1.86-.18,2.3.67.35.67.26,1.85-.74,2.28-.6.26-1.74.18-2.17-.62-.4-.73-.32-1.96.62-2.33Z"/>
          <path d="M97.79,132.34c1.03,0,1.62.73,1.65,1.63s-.55,1.62-1.55,1.65c-.81.02-1.61-.54-1.7-1.42-.11-.96.54-1.87,1.61-1.87Z"/>
          <path d="M41.62,64.11c1.07-.39,1.94.04,2.29.83s-.01,1.77-.66,2.1c-.89.45-1.81.15-2.18-.43-.52-.81-.43-2.15.55-2.51Z"/>
          <path d="M96.73,160.28c.74-.57,2.01-.47,2.46.28.37.63.49,1.75-.33,2.32-.57.39-1.69.43-2.34-.31-.42-.48-.67-1.61.21-2.29Z"/>
          <path d="M57.4,160.24c.87.62.71,2.01.11,2.5-.7.57-1.99.62-2.51-.09s-.55-1.96.35-2.48c.53-.31,1.46-.36,2.06.07Z"/>
          <path d="M139.07,159.92c1-.11,1.77.6,1.9,1.19.25,1.11-.52,1.88-1.2,1.99-1.1.18-1.86-.21-2.03-1.02-.21-1.02.13-2.03,1.33-2.16Z"/>
          <path d="M157.53,114.26c.93-.2,1.69.41,1.9,1.03.35,1.04-.24,1.89-.86,2.08-1.13.35-2.08-.14-2.26-.93-.24-1.04.18-1.96,1.23-2.19Z"/>
          <path d="M70.12,41c1.07-.1,1.68.7,1.75,1.39.1,1.13-.48,1.81-1.58,1.87-.79.04-1.51-.38-1.68-1.38-.13-.78.35-1.77,1.51-1.88Z"/>
          <path d="M32.95,54.84c1.06-.25,1.81.36,1.96,1.08.22,1.05-.11,1.94-1.25,2.08-.71.09-1.6-.09-1.89-1.1-.2-.69.06-1.8,1.18-2.07Z"/>
          <path d="M156.9,119.11c.83-.5,1.98-.3,2.39.49.34.65.35,1.78-.45,2.23-.69.39-1.65.35-2.14-.18-.62-.67-.69-2,.2-2.54Z"/>
          <path d="M143.18,73.35c.8-.38,1.85-.18,2.25.65.35.72.26,1.85-.75,2.28-.63.27-1.72.17-2.19-.61s-.27-1.87.69-2.32Z"/>
          <path d="M60.65,100.46c.93-.16,1.73.4,1.88,1.11.21,1.03-.16,1.97-1.24,2.12-.83.11-1.79-.19-1.97-1.33-.12-.73.28-1.72,1.33-1.9Z"/>
          <path d="M42.05,100.46c1.03-.17,1.83.38,1.95,1.34.1.82-.2,1.74-1.32,1.94-.68.12-1.62-.21-1.88-1.24-.19-.74.17-1.87,1.24-2.04Z"/>
          <path d="M88.38,159.92c1.11-.1,1.78.68,1.84,1.47.07,1.03-.61,1.65-1.37,1.74-1.04.12-1.83-.39-1.95-1.31-.12-.86.41-1.79,1.48-1.89Z"/>
          <path d="M152.46,119.01c.84-.37,1.89-.22,2.27.64.35.78.25,1.8-.79,2.29-.59.28-1.68.15-2.15-.62-.45-.72-.24-1.91.67-2.31Z"/>
          <path d="M133.89,86.88c.81-.38,1.85-.19,2.27.65.34.68.24,1.83-.76,2.29-.6.27-1.7.16-2.19-.63-.45-.72-.24-1.88.68-2.31Z"/>
          <path d="M124.84,86.88c.86-.33,1.88-.2,2.31.67.33.67.23,1.78-.78,2.26-.59.28-1.72.19-2.16-.61-.4-.73-.31-1.95.63-2.32Z"/>
          <path d="M55.55,86.88c.81-.34,1.9-.2,2.28.67.29.67.26,1.87-.76,2.28-.63.25-1.76.14-2.2-.61s-.29-1.94.68-2.34Z"/>
          <path d="M148.38,146.13c1.08-.15,1.81.67,1.88,1.41.09,1.01-.59,1.72-1.28,1.84-1.05.19-1.82-.48-1.97-1.12-.26-1.09.28-1.98,1.38-2.13Z"/>
          <path d="M69.88,127.78c.94-.23,1.81.48,1.93,1.13.2,1.05-.18,1.99-1.23,2.1-.79.08-1.67-.17-1.93-1.11-.22-.77.07-1.84,1.23-2.12Z"/>
          <path d="M147.61,119.13c.88-.55,1.92-.33,2.41.45.42.66.31,1.71-.47,2.23-.65.43-1.63.37-2.14-.15-.64-.65-.66-1.99.19-2.53Z"/>
          <path d="M41.45,119.1c.89-.53,1.95-.28,2.4.49.4.69.24,1.73-.47,2.21s-1.64.35-2.14-.16c-.67-.69-.69-2.01.21-2.54Z"/>
          <path d="M124.69,160.21c.77-.49,1.89-.38,2.37.38.39.62.38,1.77-.36,2.27-.58.4-1.75.45-2.36-.25-.51-.58-.53-1.85.35-2.41Z"/>
          <path d="M83.13,146.44c.87-.58,1.9-.35,2.43.43.44.65.37,1.69-.48,2.26-.61.41-1.55.39-2.11-.17-.63-.62-.71-1.94.16-2.52Z"/>
          <path d="M60.1,13.95c.8-.37,1.86-.33,2.32.55.32.61.3,1.87-.71,2.33-.6.28-1.61.25-2.19-.67-.37-.59-.36-1.78.58-2.21Z"/>
          <path d="M46.45,9.22c1.01-.29,1.91.22,2.13.86.35.99-.14,1.91-.92,2.19-.85.3-1.73-.02-2.12-.78s-.14-1.97.92-2.27Z"/>
          <path d="M125.57,41.01c1.05-.08,1.66.72,1.72,1.41.11,1.16-.54,1.8-1.54,1.84-.93.04-1.57-.37-1.73-1.36-.14-.9.35-1.81,1.55-1.89Z"/>
          <path d="M166.19,119.11c.88-.55,1.93-.29,2.4.48.41.67.29,1.72-.46,2.22-.69.46-1.66.33-2.14-.15-.67-.67-.67-2.01.19-2.55Z"/>
          <path d="M32.45,132.61c.85-.51,1.94-.3,2.36.53.32.63.26,1.91-.7,2.32-.56.24-1.48.28-2.1-.51-.41-.52-.52-1.77.44-2.34Z"/>
          <path d="M157.52,173.43c.94-.18,1.71.4,1.92,1.04.34,1.03-.22,1.88-.89,2.1-1.02.34-2.08-.14-2.24-.95-.2-1.03.14-1.99,1.21-2.19Z"/>
          <path d="M143.59,54.81c1.09-.14,1.83.44,1.98,1.14.23,1.09-.3,1.91-1.24,2.06-.85.14-1.7-.22-1.95-1.07s.08-1.98,1.22-2.13Z"/>
          <path d="M157.19,150.85c.94-.28,1.88-.06,2.2.83.27.72.04,1.8-.67,2.14-.89.42-1.94.09-2.26-.6-.42-.92-.25-2.08.73-2.37Z"/>
          <path d="M148.12,54.85c1.05-.27,1.82.35,2.04,1.02.32.97-.23,1.86-.86,2.04-1.02.29-1.95-.03-2.19-.71-.35-.97-.12-2.07,1.01-2.36Z"/>
          <path d="M120.62,54.82c.96-.2,1.69.35,1.97,1.04.38.93-.24,1.83-.88,2.04-1.04.35-2.07-.1-2.25-.89-.21-.97.15-1.98,1.16-2.19Z"/>
          <path d="M23.91,73.17c1.12-.11,1.81.64,1.81,1.6,0,.86-.51,1.62-1.61,1.67-.71.03-1.58-.53-1.71-1.42-.12-.82.43-1.73,1.51-1.84Z"/>
          <path d="M129.03,73.45c.86-.61,1.9-.28,2.42.45.48.67.35,1.66-.48,2.25-.6.43-1.56.34-2.11-.17-.64-.59-.63-1.96.18-2.53Z"/>
          <path d="M32.43,73.44c.87-.52,1.92-.3,2.4.5.43.71.14,1.82-.74,2.35-.52.31-1.45.23-2.07-.51-.43-.51-.52-1.78.4-2.34Z"/>
          <path d="M41.52,45.81c.82-.38,1.87-.28,2.32.53.37.66.22,1.87-.65,2.37-.6.34-1.72.19-2.22-.7-.32-.57-.34-1.78.56-2.2Z"/>
          <path d="M60.55,114.28c1.01-.25,1.83.41,1.99,1.08.25,1.07-.17,1.9-1.29,2.1-.7.12-1.59-.08-1.88-1.09-.2-.68.07-1.81,1.19-2.09Z"/>
          <path d="M60.55,9.18c1-.25,1.83.4,1.98,1.05.25,1.08-.16,1.94-1.25,2.13-.72.12-1.6-.13-1.91-1.09-.24-.72.03-1.8,1.18-2.09Z"/>
          <path d="M60.69,127.76c.89-.17,1.71.45,1.85,1.13.22,1.05-.19,1.93-1.27,2.09-.81.12-1.75-.23-1.94-1.3-.14-.76.34-1.72,1.37-1.92Z"/>
          <path d="M46.15,146.37c.94-.46,1.98-.22,2.38.64.33.7.23,1.76-.77,2.27-.57.29-1.54.2-2.03-.48s-.59-1.94.42-2.43Z"/>
          <path d="M32.44,86.96c.88-.53,1.91-.27,2.39.52.4.65.17,1.9-.73,2.34-.57.27-1.45.27-2.06-.52-.4-.51-.54-1.77.4-2.33Z"/>
          <path d="M69.95,54.79c.95-.15,1.7.43,1.85,1.14.22,1.02-.17,1.97-1.21,2.08-.9.09-1.78-.2-2.01-1.39-.13-.65.36-1.68,1.37-1.84Z"/>
          <path d="M36.97,73.46c.83-.6,2-.27,2.43.44.39.64.36,1.79-.3,2.2-.76.48-1.83.42-2.4-.25-.46-.54-.54-1.82.26-2.4Z"/>
          <path d="M106.24,41.22c.87-.38,1.93-.19,2.32.66.31.68.26,1.77-.61,2.18-.7.33-1.71.35-2.28-.53-.41-.63-.46-1.86.56-2.31Z"/>
          <path d="M41.44,73.44c.85-.55,1.93-.28,2.39.49.39.66.29,1.74-.48,2.21-.71.43-1.61.35-2.12-.14-.7-.67-.68-1.99.2-2.56Z"/>
          <path d="M148.12,127.81c1.02-.31,1.81.37,2.04,1.03.33.96-.25,1.84-.89,2.05-.95.31-1.9-.08-2.17-.7-.41-.95-.09-2.05,1.01-2.38Z"/>
          <path d="M32.45,119.08c.84-.51,1.94-.26,2.37.54.32.6.28,1.9-.71,2.32-.55.23-1.47.28-2.08-.51-.4-.52-.52-1.77.43-2.35Z"/>
          <path d="M32.96,127.8c.99-.25,1.81.39,1.97,1.08.24,1.01-.15,1.94-1.26,2.1-.69.1-1.59-.1-1.89-1.15-.19-.65,0-1.74,1.18-2.04Z"/>
          <path d="M120,160.22c.87-.56,2.03-.34,2.48.49.34.63.21,1.67-.41,2.11-.73.52-1.84.44-2.35-.17s-.57-1.88.27-2.43Z"/>
          <path d="M56.28,9.15c1.13-.04,1.65.69,1.71,1.43.09,1.09-.73,1.75-1.54,1.79-.94.06-1.65-.56-1.79-1.33-.18-1.01.48-1.85,1.62-1.9Z"/>
          <path d="M30.25,31.53h-11.66c-.69.01-1.33-.43-1.33-1.19l-.04-11.21c0-.86.55-1.38,1.39-1.38h11.49c.72.14,1.1.65,1.1,1.38v11.26c-.01.54-.33.95-.96,1.15Z"/>
          <path d="M29.99,168.55h-11.4c-.73.01-1.34-.51-1.34-1.27v-11.22c-.02-.82.62-1.32,1.39-1.32h11.18c.58,0,1.35.42,1.35,1.05v11.49c.01.56-.43,1.26-1.18,1.26Z"/>
          <path d="M168.28,31.53l-11.14.02c-.92,0-1.45-.52-1.45-1.45l-.02-11c0-.78.54-1.32,1.32-1.32l11.1-.02c.46,0,1.45.26,1.45.83l.05,11.78c0,.63-.55,1.16-1.31,1.16Z"/>
        </g>
        <g>
          <path class="cls-1" d="M101.29,66.71c5.27,0,7.9,0,10.78.91,3.1,1.13,5.53,3.57,6.67,6.67.91,2.88.91,5.51.91,10.79v15.94c0,5.28,0,7.93-.91,10.78-1.13,3.1-3.57,5.53-6.67,6.67-2.88.92-5.51.92-10.78.92h-15.97c-5.28,0-7.93,0-10.78-.91-3.1-1.13-5.53-3.57-6.67-6.67-.91-2.88-.91-5.51-.91-10.79v-15.96c0-5.28,0-7.93.91-10.78,1.13-3.1,3.57-5.53,6.67-6.67,2.88-.91,5.51-.91,10.78-.91h15.97Z"/>
          <path class="cls-2" d="M101.92,86.3c.41.41,1.09.41,1.48,0l2.06-2.14c.44-.41.41-1.15-.05-1.6-1.62-1.41-3.5-2.48-5.53-3.16l.65-3.13c.14-.68-.37-1.33-1.05-1.33h-3.98c-.51,0-.95.37-1.05.87l-.58,2.78c-5.3.27-9.79,2.96-9.79,8.48,0,4.77,3.71,6.82,7.64,8.23,3.71,1.42,5.68,1.94,5.68,3.93s-1.96,3.25-4.86,3.25c-2.63,0-5.4-.88-7.54-3.03-.42-.42-1.09-.42-1.51,0,0,0,0,0,0,0l-2.22,2.22c-.44.44-.44,1.14,0,1.58,1.73,1.7,3.92,2.94,6.41,3.62l-.61,2.94c-.14.68.36,1.32,1.05,1.33l3.99.03c.52,0,.97-.36,1.07-.87l.58-2.79c6.38-.43,10.26-3.94,10.26-9.07,0-4.72-3.87-6.72-8.56-8.34-2.68-1-5-1.68-5-3.73s2.16-2.78,4.34-2.78c2.77,0,5.42,1.14,7.16,2.71l-.02-.02Z"/>
        </g>
      </g>
    </g>
  </g>
</svg>