<?xml version="1.0" encoding="UTF-8"?>
<svg id="Layer_2" data-name="Layer 2" xmlns="http://www.w3.org/2000/svg" viewBox="0 0 186.6 186.5">
  <defs>
    <style>
      .cls-1 {
        fill: #fff;
      }
    </style>
  </defs>
  <g id="Layer_1-2" data-name="Layer 1">
    <g>
      <rect class="cls-1" width="186.6" height="186.5" rx="7.62" ry="7.62"/>
      <g>
        <polygon points="58.41 111.78 58.33 115.93 54.3 115.83 54.18 111.8 50.16 111.79 50.16 107.58 54.22 107.56 54.28 99.36 62.44 99.35 62.5 103.5 58.43 103.6 58.4 107.56 66.56 107.57 66.6 103.5 70.68 103.54 70.74 111.69 74.8 111.65 74.8 103.54 78.9 103.5 78.94 107.51 83.01 107.66 83.05 111.65 87.05 111.69 87.17 107.66 91.23 107.51 91.24 99.5 87.16 99.48 87.12 103.53 83.04 103.53 82.98 99.47 62.54 99.46 62.49 95.25 70.66 95.23 70.73 91.13 74.75 91.14 74.9 95.25 82.99 95.23 83.04 91.18 87.12 91.18 87.17 95.23 99.44 95.25 99.47 103.39 103.58 103.55 103.54 107.68 95.41 107.68 95.42 111.69 103.53 111.66 103.6 107.54 107.68 107.66 107.67 115.89 83.14 115.9 83.03 119.86 91.25 119.95 91.23 128.22 87.19 128.23 87.04 124.12 78.96 124.12 78.87 120.02 66.63 120.02 66.55 124.12 62.56 124.11 62.43 120.05 58.39 119.99 58.38 115.8 62.41 115.79 62.48 111.83 58.41 111.78"/>
        <path d="M115.86,58.26v4.22s-12.25,0-12.25,0l-.07,8.13-4,.13-.15,4.07h-4s-.15-4.08-.15-4.08l-3.99-.11-.12-4-4.02-.1-.04-4-4-.05-.11,4.04-4.04.1-.06-4.1-4.07-.06.03-4.19h16.38s.06,4.08.06,4.08l4.09-.02-.04-8.06-4.05-.03-.04-12.23-4.1-.16.03-4.11,4.06-.06.03-3.99,4.07-.1.07,4.11h4.04s.07-4.13.07-4.13l4.06.13.06,8.14,4.06-.04v-8.12s4.12,0,4.12,0v8.12s4.07.05,4.07.05l.05-8.14,4.09-.1.02,8.18,4.03.07.1,4.11-4.06.11-.14,4.09-8.14-.05-.05-4.05h-4.05s-.04,4.01-.04,4.01l-4.03.1-.07,3.92,4.03.08.12,4.07h8.15ZM99.48,50l-.03-8.03-4.06-.04-.05,8.09h4.14Z"/>
        <polygon points="152.88 74.78 140.58 74.83 140.59 78.8 161.02 78.81 161.13 86.96 165.18 87.12 165.23 91.09 169.3 91.16 169.32 99.36 165.23 99.5 165.16 95.39 161.18 95.35 161.03 99.46 152.91 99.47 152.85 95.32 156.91 95.22 156.98 91.29 152.93 91.21 152.8 83.03 136.44 83.03 136.43 70.64 144.57 70.57 144.66 66.64 140.57 66.56 140.51 50.16 128.23 50.15 128.21 41.93 132.29 41.79 132.37 45.92 144.6 45.94 144.7 50.02 148.73 50.02 148.8 45.95 152.84 45.9 152.88 41.87 156.97 41.87 157.01 45.91 161.06 45.91 161.1 41.86 165.2 41.9 165.2 50.13 152.98 50.16 152.81 54.25 148.84 54.27 148.73 58.29 144.71 58.4 144.7 62.36 161.04 62.38 161.08 66.56 148.8 66.61 148.77 70.52 152.87 70.67 152.88 74.78"/>
        <polygon points="115.89 165.08 124.02 165.11 124.16 169.24 120.05 169.35 120.05 173.29 124.13 173.4 124.07 177.53 99.49 177.53 99.42 173.46 95.43 173.42 95.32 177.5 87.18 177.55 87.1 169.31 91.24 169.14 91.23 161.13 83.05 161.09 83.03 156.91 95.26 156.87 95.31 152.92 91.23 152.8 91.24 144.63 95.34 144.59 95.37 148.62 99.37 148.69 99.51 152.73 103.53 152.8 103.58 161.08 99.52 161.11 99.47 165.05 103.54 165.13 103.61 173.32 107.65 173.29 107.68 169.28 111.75 169.18 111.81 173.29 115.82 173.33 115.89 169.36 111.79 169.3 111.77 161.09 115.87 160.95 115.89 165.08"/>
        <polygon points="144.63 128.17 144.65 132.3 136.49 132.36 136.34 128.22 128.25 128.25 128.21 132.26 124.14 132.36 124.07 128.24 107.79 128.22 107.64 124.06 115.86 123.98 115.9 119.97 119.97 119.87 120.04 124 132.24 124.02 132.3 120.02 120.05 120 119.98 115.88 124.08 115.73 124.14 111.7 128.18 111.64 128.25 107.57 132.29 107.57 132.37 111.66 140.45 111.69 140.6 107.57 144.57 107.58 144.69 111.67 160.96 111.69 161.12 115.87 156.98 115.95 156.98 124.08 148.81 124.14 148.74 119.97 152.82 119.87 152.83 115.91 136.54 115.89 136.45 119.86 144.65 119.94 144.64 124.11 140.61 124.12 140.55 128.06 144.63 128.17"/>
        <polygon points="41.94 103.59 33.81 103.56 33.72 107.51 37.83 107.66 37.83 111.7 33.75 111.86 33.69 115.9 29.69 115.9 29.56 111.82 25.53 111.81 25.49 115.87 21.39 115.83 21.39 107.61 29.52 107.56 29.61 103.64 25.48 103.48 25.54 99.35 37.73 99.36 37.83 95.42 33.71 95.27 33.74 91.14 37.76 91.13 37.82 87.18 33.72 87.11 33.75 82.92 41.9 82.92 41.97 86.99 45.96 87.04 46.1 82.92 50.09 82.92 50.25 87.04 58.33 87.01 58.4 82.91 62.46 82.94 62.49 95.35 54.3 95.36 54.23 91.28 50.24 91.24 50.1 95.35 46.08 95.36 46.01 91.28 41.99 91.24 41.99 95.24 46.04 95.26 46.05 103.4 50.17 103.55 50.12 107.7 41.94 107.65 41.94 103.59"/>
        <path d="M161.1,161.08l-20.48.04-.11-8.18-3.99-.06-.12,4.06-4.06.08-.02-8.3,8.15-.05.03-3.95-4.07-.1v-4.07s4.04-.1,4.04-.1l.12-4.04,8.13-.06.1,4.12h20.42s.16,4.08.16,4.08l4.02.11v4.07s-4.02.1-4.02.1l-.15,4.11-4.05-.12v-8.11s-4.11.02-4.11.02v16.37ZM156.99,156.86l-.02-12.18-12.29-.02-.04,12.22,12.34-.02Z"/>
        <path d="M177.54,37.79l-28.76.06-.04-28.88,28.75-.03.04,28.84ZM173.42,33.58V13.17s-20.55,0-20.55,0v20.43s20.55-.03,20.55-.03Z"/>
        <path d="M37.85,37.79l-28.76.06-.04-28.88,28.75-.03.04,28.85ZM33.72,33.58V13.17s-20.55,0-20.55,0v20.43s20.55-.03,20.55-.03Z"/>
        <path d="M37.85,177.5l-28.76.06-.04-28.88,28.75-.03.04,28.85ZM33.72,173.3v-20.41s-20.55,0-20.55,0v20.43s20.55-.03,20.55-.03Z"/>
        <polygon points="83.07 144.66 78.95 144.67 78.9 152.78 74.84 152.95 74.79 156.96 66.68 157.01 66.55 152.85 70.66 152.75 70.71 144.72 66.62 144.63 66.57 136.37 70.71 136.28 70.66 128.26 66.57 128.15 66.63 124.01 78.87 124.01 78.92 128.22 74.87 128.23 74.81 132.2 78.88 132.21 78.95 128.12 87.13 128.12 87.14 140.45 83.06 140.6 82.99 136.46 74.88 136.44 74.87 140.45 82.98 140.44 83.07 144.66"/>
        <polygon points="62.43 165.1 62.5 169.24 58.41 169.35 58.45 173.33 66.56 173.3 66.6 169.24 70.74 169.29 70.62 177.55 41.93 177.53 41.93 157.01 46.03 156.94 46.08 165.1 50.12 165.1 50.16 156.9 62.46 156.89 62.45 161.09 54.29 161.12 54.28 165.09 62.43 165.1"/>
        <polygon points="107.8 152.93 107.64 148.68 111.74 148.66 111.73 144.65 107.7 144.7 107.65 148.78 103.65 148.77 103.51 144.71 99.56 144.64 99.35 140.57 91.25 140.52 91.24 136.42 95.32 136.27 95.38 132.24 99.42 132.22 99.47 124.19 95.34 124.03 95.35 119.93 103.55 119.9 103.58 140.39 107.67 140.43 107.67 132.27 115.8 132.2 115.91 136.44 111.85 136.45 111.79 140.42 115.86 140.42 115.92 136.33 119.97 136.34 120.04 140.39 124.05 140.49 124.09 144.65 115.9 144.69 115.9 152.83 107.8 152.93"/>
        <path d="M21.4,132.35v8.14s-4.11,0-4.11,0v-8.13s-4.1.01-4.1.01v12.19c-1.4.07-2.73.06-4.12-.07l.02-28.71,8.2.04v8.13s4.02.08,4.02.08l.13,4.02,3.98.11.09,4.15-4.12.03Z"/>
        <polygon points="25.51 99.45 21.47 99.47 21.36 103.51 17.29 103.58 17.27 95.37 9.15 95.35 9.04 91.17 17.2 91.12 17.28 87.2 13.17 87.05 13.17 82.99 17.2 82.89 17.33 78.81 25.46 78.81 25.52 87.12 21.46 87.15 21.39 91.1 25.42 91.15 25.55 87.03 33.68 87.02 33.72 91.24 29.69 91.25 29.57 95.26 25.53 95.42 25.51 99.45"/>
        <polygon points="74.81 54.23 66.69 54.28 66.52 58.4 62.51 58.3 62.4 54.27 58.39 54.26 58.36 50.12 62.39 50.01 62.53 45.96 66.58 45.89 66.59 33.69 70.7 33.69 70.7 45.91 78.82 45.95 78.98 41.8 83.01 41.89 83.05 45.89 87.07 45.96 87.13 50.12 74.85 50.18 74.81 54.23"/>
        <polygon points="95.35 29.65 91.28 29.58 91.22 21.44 87.15 21.36 87.14 17.18 91.16 17.16 91.29 13.07 95.27 13.06 95.38 9 99.44 9 99.49 13.02 103.57 13.09 103.57 25.46 99.47 25.55 99.45 33.7 95.37 33.72 95.35 29.65"/>
        <polygon points="54.26 58.39 46.09 58.36 46.01 50.14 50.1 50.01 50.11 46.05 33.77 46.04 33.72 41.85 45.95 41.82 46.1 37.72 50.12 37.72 50.19 41.78 54.26 41.86 54.27 54.1 58.37 54.18 58.37 62.47 54.28 62.49 54.26 58.39"/>
        <polygon points="87.15 83 74.91 83.04 74.74 87.14 70.72 87.12 70.65 78.93 66.62 78.9 66.57 70.61 70.65 70.58 70.72 62.39 74.77 62.36 74.84 66.44 78.89 66.5 78.92 70.61 74.81 70.77 74.82 78.79 87.09 78.81 87.15 83"/>
        <polygon points="148.84 169.31 148.73 173.39 140.59 173.45 140.5 169.35 132.35 169.28 132.29 165.28 128.26 165.12 128.14 161.14 124.1 161.02 124.12 152.76 128.21 152.84 128.25 156.84 132.29 156.9 132.36 160.95 136.35 161.02 136.49 165.08 152.85 165.12 152.87 169.32 148.84 169.31"/>
        <polygon points="25.48 54.2 21.42 54.26 21.35 46.04 17.31 46.08 17.27 50.12 9.1 50.17 9.06 41.83 29.58 41.83 29.64 45.89 33.71 45.96 33.69 50.16 25.59 50.15 25.48 54.2"/>
        <polygon points="50.18 148.82 50.14 152.85 42 152.89 41.87 144.68 33.73 144.63 33.71 140.52 37.74 140.42 37.88 136.31 41.92 136.41 41.97 140.41 50.13 140.49 50.18 144.51 54.19 144.58 54.29 148.69 50.18 148.82"/>
        <polygon points="124.11 111.79 115.99 111.79 115.85 115.86 111.78 115.83 111.78 107.65 115.85 107.54 115.92 99.36 124.07 99.35 124.14 103.42 128.16 103.48 128.22 107.66 124.13 107.72 124.11 111.79"/>
        <polygon points="103.61 87.13 99.54 87.14 99.4 91.25 91.27 91.24 91.22 78.97 87.14 78.89 87.16 74.7 95.31 74.7 95.39 78.77 99.42 78.83 99.49 82.87 103.53 82.94 103.61 87.13"/>
        <polygon points="50.11 33.7 46.08 33.75 46.01 37.86 41.93 37.74 41.93 29.58 45.95 29.46 46.11 25.38 62.46 25.41 62.48 29.56 54.27 29.64 54.25 37.81 50.19 37.83 50.11 33.7"/>
        <polygon points="128.26 13.15 128.21 21.31 124.12 21.36 124.08 17.32 120.01 17.26 120.01 13.08 124.08 13.02 124.13 8.97 144.53 8.94 144.69 13.12 136.47 13.2 136.42 17.23 132.34 17.23 132.3 13.21 128.26 13.15"/>
        <polygon points="13.17 66.46 17.28 66.5 17.28 78.9 13.22 78.91 13.15 70.77 9.06 70.59 9.06 54.27 13.16 54.17 13.2 58.22 17.27 58.28 17.28 62.47 13.24 62.49 13.17 66.46"/>
        <polygon points="136.43 103.39 140.56 103.55 140.5 107.69 132.33 107.68 132.32 95.35 136.42 95.18 136.45 87.01 140.55 87.11 140.55 95.18 144.66 95.33 144.65 99.43 136.52 99.48 136.43 103.39"/>
        <polygon points="140.55 37.83 140.53 29.61 124.16 29.6 124.12 25.42 136.4 25.37 136.45 21.35 140.51 21.25 140.58 25.32 144.66 25.49 144.66 37.72 140.55 37.83"/>
        <polygon points="128.2 91.21 124.13 91.19 124.08 87.15 111.82 87.13 111.82 82.92 124.02 82.92 124.15 78.88 128.18 78.78 128.25 82.9 136.41 82.93 136.42 87.14 128.31 87.13 128.2 91.21"/>
        <polygon points="165.17 132.27 165.18 136.43 148.77 136.46 148.77 128.12 161.04 128.12 161.13 132.17 165.17 132.27"/>
        <polygon points="78.95 169.4 78.88 165.22 62.52 165.21 62.53 160.99 83.01 160.99 83.04 169.21 78.95 169.4"/>
        <polygon points="177.48 107.56 177.55 115.86 169.31 115.92 169.3 103.56 173.41 103.49 173.43 107.54 177.48 107.56"/>
        <polygon points="115.98 58.4 115.86 54.23 119.92 54.12 120.06 50.04 128.21 50.04 128.23 58.34 115.98 58.4"/>
        <polygon points="177.56 132.31 165.24 132.35 165.16 128.27 161.11 128.21 161.09 124.04 169.21 123.99 169.35 128.1 177.43 128.13 177.56 132.31"/>
        <polygon points="58.36 78.83 58.34 83.02 50.15 83.03 50.15 70.68 54.25 70.65 54.3 78.8 58.36 78.83"/>
        <polygon points="17.33 107.59 13.2 107.74 13.16 111.76 9.06 111.7 9.06 99.44 13.16 99.38 13.2 103.42 17.25 103.48 17.33 107.59"/>
        <polygon points="37.86 128.2 33.75 128.27 33.68 132.35 29.61 132.32 29.6 120 33.68 119.86 33.75 123.95 37.82 124.09 37.86 128.2"/>
        <polygon points="62.5 21.36 50.26 21.41 50.13 17.18 54.18 17.16 54.29 13.13 58.33 13.03 58.41 17.11 62.47 17.25 62.5 21.36"/>
        <polygon points="74.81 17.28 70.73 17.28 70.67 13.21 66.65 13.15 66.58 8.98 78.81 8.94 78.96 13.08 74.83 13.24 74.81 17.28"/>
        <polygon points="46.08 66.6 46.03 70.66 41.92 70.62 41.95 62.37 54.21 62.37 54.27 66.55 46.08 66.6"/>
        <polygon points="33.76 78.92 33.68 83.03 29.65 83.01 29.59 74.73 41.83 74.68 41.93 78.92 33.76 78.92"/>
        <polygon points="128.13 70.6 128.21 74.8 120.04 74.81 119.99 66.5 124.08 66.47 124.14 70.55 128.13 70.6"/>
        <polygon points="107.69 95.36 107.65 91.29 103.57 91.22 103.6 87.02 111.78 87.03 111.79 95.34 107.69 95.36"/>
        <polygon points="169.27 58.31 169.31 62.44 161.1 62.5 161.08 54.23 165.19 54.19 165.22 58.21 169.27 58.31"/>
        <polygon points="41.96 17.28 41.92 13.15 46.02 13 46.06 8.99 50.16 9.03 50.15 17.28 41.96 17.28"/>
        <polygon points="177.45 45.92 177.55 50.11 169.35 50.17 169.28 41.91 173.41 41.86 173.43 45.9 177.45 45.92"/>
        <polygon points="156.9 103.45 157 107.64 148.81 107.7 148.74 99.45 152.84 99.32 152.9 103.43 156.9 103.45"/>
        <polygon points="46.06 120.05 46.02 115.94 41.95 115.88 41.94 111.72 50.14 111.66 50.16 119.91 46.06 120.05"/>
        <polygon points="78.94 29.58 66.68 29.62 66.57 25.41 78.87 25.37 78.94 29.58"/>
        <polygon points="140.58 177.51 128.31 177.55 128.2 173.34 140.5 173.31 140.58 177.51"/>
        <polygon points="165.22 107.61 161.08 107.62 161.09 99.36 165.19 99.35 165.22 107.61"/>
        <polygon points="136.46 41.84 132.33 41.96 132.32 33.67 136.43 33.66 136.46 41.84"/>
        <polygon points="87.17 152.8 83.02 152.82 83.03 144.56 87.08 144.55 87.17 152.8"/>
        <polygon points="62.5 144.6 58.37 144.6 58.37 136.42 62.47 136.31 62.5 144.6"/>
        <polygon points="29.63 140.49 25.49 140.49 25.51 132.23 29.6 132.22 29.63 140.49"/>
        <polygon points="157.01 177.47 152.86 177.47 152.88 169.21 156.97 169.21 157.01 177.47"/>
        <polygon points="87.15 37.78 83.06 37.83 83 29.57 87.13 29.55 87.15 37.78"/>
        <polygon points="25.54 74.73 21.38 74.75 21.4 66.48 25.45 66.48 25.54 74.73"/>
        <polygon points="78.93 41.89 74.85 41.94 74.78 33.68 78.91 33.66 78.93 41.89"/>
        <polygon points="120.03 25.43 115.89 25.44 115.89 17.25 119.99 17.15 120.03 25.43"/>
        <polygon points="177.57 99.38 173.41 99.4 173.42 91.14 177.48 91.13 177.57 99.38"/>
        <polygon points="62.5 78.82 58.38 78.94 58.36 70.68 62.47 70.57 62.5 78.82"/>
        <polygon points="177.55 140.52 169.34 140.57 169.31 136.36 177.51 136.35 177.55 140.52"/>
        <polygon points="120.02 13.17 111.81 13.18 111.78 8.97 119.99 8.97 120.02 13.17"/>
        <polygon points="87.17 25.46 78.94 25.52 78.94 21.28 87.1 21.28 87.17 25.46"/>
        <polygon points="111.81 29.59 103.56 29.59 103.59 25.37 111.77 25.42 111.81 29.59"/>
        <polygon points="177.55 58.34 169.34 58.39 169.31 54.17 177.51 54.17 177.55 58.34"/>
        <polygon points="41.95 62.5 33.71 62.45 33.74 58.24 41.93 58.29 41.95 62.5"/>
        <polygon points="46.06 132.33 37.85 132.34 37.85 128.1 46.04 128.15 46.06 132.33"/>
        <polygon points="115.93 70.68 107.68 70.68 107.68 66.52 115.86 66.46 115.93 70.68"/>
        <polygon points="165.22 74.82 156.98 74.78 156.98 70.62 165.16 70.57 165.22 74.82"/>
        <polygon points="111.81 83.02 103.59 83.03 103.59 78.81 111.75 78.8 111.81 83.02"/>
        <polygon points="41.97 119.97 33.74 120.03 33.74 115.79 41.9 115.79 41.97 119.97"/>
        <polygon points="169.34 119.99 161.08 119.99 161.11 115.79 169.27 115.79 169.34 119.99"/>
        <polygon points="173.45 91.25 169.32 91.25 169.29 87.07 173.41 87.07 173.45 91.25"/>
        <polygon points="103.62 95.29 99.47 95.38 99.47 91.13 103.53 91.13 103.62 95.29"/>
        <polygon points="120.05 95.29 115.91 95.38 115.88 91.18 119.99 91.18 120.05 95.29"/>
        <polygon points="37.9 54.2 33.77 54.27 33.7 50.04 37.74 50.04 37.9 54.2"/>
        <polygon points="54.31 99.46 50.22 99.46 50.15 95.25 54.23 95.24 54.31 99.46"/>
        <polygon points="115.94 99.46 111.85 99.46 111.78 95.25 115.86 95.24 115.94 99.46"/>
        <polygon points="128.26 99.4 124.13 99.49 124.1 95.29 128.21 95.29 128.26 99.4"/>
        <polygon points="148.8 46.05 144.67 46.05 144.64 41.87 148.76 41.87 148.8 46.05"/>
        <polygon points="62.56 46.05 58.44 46.02 58.35 41.83 62.39 41.82 62.56 46.05"/>
        <polygon points="58.42 41.94 54.27 41.94 54.27 37.72 58.34 37.71 58.42 41.94"/>
        <polygon points="128.3 37.79 124.12 37.76 124.11 33.61 128.13 33.61 128.3 37.79"/>
        <polygon points="62.52 37.76 58.39 37.85 58.36 33.65 62.47 33.65 62.52 37.76"/>
        <polygon points="124.15 33.72 120.02 33.72 119.99 29.57 124.08 29.46 124.15 33.72"/>
        <polygon points="46.09 25.5 41.99 25.49 41.93 21.35 46.03 21.31 46.09 25.5"/>
        <polygon points="144.7 21.32 140.56 21.41 140.53 17.22 144.64 17.21 144.7 21.32"/>
        <polygon points="78.99 21.4 74.88 21.36 74.79 17.18 78.83 17.17 78.99 21.4"/>
        <polygon points="136.48 66.56 132.32 66.54 132.32 62.42 136.43 62.41 136.48 66.56"/>
        <polygon points="128.26 66.53 124.13 66.61 124.1 62.42 128.21 62.41 128.26 66.53"/>
        <polygon points="70.75 21.36 66.58 21.34 66.58 17.24 70.66 17.14 70.75 21.36"/>
        <polygon points="58.43 124.09 54.26 124.07 54.26 119.97 58.34 119.87 58.43 124.09"/>
        <polygon points="177.57 124.09 173.41 124.07 173.41 119.95 177.51 119.94 177.57 124.09"/>
        <polygon points="148.81 128.23 144.66 128.23 144.67 124.01 148.73 124.01 148.81 128.23"/>
        <polygon points="111.84 17.25 107.66 17.23 107.69 13.06 111.75 13.06 111.84 17.25"/>
        <polygon points="87.2 17.28 83.09 17.28 82.99 13.13 87.07 13.05 87.2 17.28"/>
        <polygon points="62.52 132.34 58.43 132.33 58.37 128.19 62.46 128.15 62.52 132.34"/>
        <polygon points="107.71 13.17 103.58 13.17 103.55 9 107.67 8.99 107.71 13.17"/>
        <polygon points="95.43 132.35 91.31 132.31 91.22 128.13 95.26 128.11 95.43 132.35"/>
        <polygon points="91.27 13.17 87.15 13.17 87.12 9 91.24 8.99 91.27 13.17"/>
        <polygon points="62.52 13.1 58.39 13.19 58.36 9 62.47 8.99 62.52 13.1"/>
        <polygon points="37.88 136.45 33.78 136.45 33.71 132.23 37.79 132.22 37.88 136.45"/>
        <polygon points="50.24 136.41 46.03 136.4 46.06 132.22 50.06 132.23 50.24 136.41"/>
        <polygon points="66.67 136.44 62.49 136.45 62.49 132.23 66.5 132.23 66.67 136.44"/>
        <polygon points="124.17 136.38 120.02 136.47 119.99 132.3 124.08 132.2 124.17 136.38"/>
        <polygon points="136.49 136.41 132.32 136.4 132.32 132.3 136.4 132.2 136.49 136.41"/>
        <polygon points="46.12 83.02 41.95 83.03 41.94 78.81 45.96 78.81 46.12 83.02"/>
        <polygon points="66.67 70.69 62.49 70.7 62.49 66.48 66.5 66.48 66.67 70.69"/>
        <polygon points="29.66 62.45 25.5 62.43 25.49 58.33 29.58 58.23 29.66 62.45"/>
        <polygon points="177.57 83 173.41 82.98 173.41 78.85 177.51 78.85 177.57 83"/>
        <polygon points="169.34 70.7 165.21 70.7 165.18 66.53 169.3 66.52 169.34 70.7"/>
        <polygon points="132.37 144.6 128.23 144.69 128.2 140.49 132.32 140.49 132.37 144.6"/>
        <polygon points="157.07 58.33 152.86 58.32 152.89 54.15 156.89 54.15 157.07 58.33"/>
        <polygon points="128.28 148.71 124.12 148.8 124.12 144.55 128.19 144.55 128.28 148.71"/>
        <polygon points="136.48 58.34 132.32 58.32 132.32 54.2 136.43 54.19 136.48 58.34"/>
        <polygon points="124.18 152.89 120.06 152.88 120 148.75 124.04 148.64 124.18 152.89"/>
        <polygon points="70.77 91.25 66.64 91.24 66.59 87.11 70.63 87 70.77 91.25"/>
        <polygon points="78.99 91.19 74.85 91.25 74.79 87.03 78.83 87.02 78.99 91.19"/>
        <polygon points="177.57 66.56 173.41 66.54 173.41 62.42 177.51 62.41 177.57 66.56"/>
        <polygon points="120.08 66.58 115.9 66.6 115.9 62.37 119.92 62.37 120.08 66.58"/>
        <polygon points="120.05 161.04 115.91 161.13 115.88 156.93 119.99 156.92 120.05 161.04"/>
        <polygon points="169.36 161.04 165.21 161.13 165.18 156.96 169.27 156.85 169.36 161.04"/>
        <polygon points="62.56 66.6 58.45 66.57 58.35 62.38 62.39 62.37 62.56 66.6"/>
        <polygon points="107.75 165.15 103.61 165.22 103.56 160.99 107.59 160.99 107.75 165.15"/>
        <polygon points="87.17 74.82 83.08 74.8 83.02 70.66 87.12 70.62 87.17 74.82"/>
        <polygon points="165.24 165.21 161.1 165.21 161.1 160.99 165.17 160.99 165.24 165.21"/>
        <polygon points="177.57 165.18 173.41 165.16 173.41 161.04 177.51 161.03 177.57 165.18"/>
        <polygon points="161.13 169.32 157 169.32 156.97 165.18 161.06 165.07 161.13 169.32"/>
        <polygon points="169.39 169.31 165.21 169.33 165.21 165.1 169.22 165.1 169.39 169.31"/>
        <polygon points="37.87 70.67 33.71 70.65 33.71 66.53 37.82 66.52 37.87 70.67"/>
        <polygon points="78.99 173.43 74.86 173.42 74.8 169.3 78.85 169.18 78.99 173.43"/>
        <polygon points="173.49 74.75 169.35 74.81 169.3 70.59 173.33 70.59 173.49 74.75"/>
        <polygon points="165.25 173.4 161.07 173.38 161.11 169.21 165.16 169.21 165.25 173.4"/>
        <polygon points="173.5 173.39 169.29 173.38 169.32 169.21 173.33 169.21 173.5 173.39"/>
        <polygon points="21.47 66.58 17.29 66.6 17.29 62.37 21.31 62.37 21.47 66.58"/>
        <polygon points="83.1 177.51 78.92 177.47 78.92 173.32 82.94 173.32 83.1 177.51"/>
        <polygon points="70.78 62.49 66.67 62.45 66.57 58.27 70.61 58.26 70.78 62.49"/>
        <polygon points="103.65 78.91 99.47 78.92 99.47 74.7 103.48 74.7 103.65 78.91"/>
        <polygon points="115.94 78.85 111.8 78.94 111.77 74.75 115.88 74.74 115.94 78.85"/>
        <polygon points="132.4 78.86 128.26 78.93 128.21 74.7 132.24 74.7 132.4 78.86"/>
        <polygon points="33.76 58.37 29.63 58.37 29.6 54.23 33.69 54.12 33.76 58.37"/>
        <polygon points="21.45 58.31 17.3 58.4 17.27 54.23 21.36 54.12 21.45 58.31"/>
        <polygon points="169.36 78.88 165.18 78.86 165.22 74.7 169.27 74.7 169.36 78.88"/>
        <polygon points="173.49 156.93 169.36 157 169.29 152.77 173.33 152.77 173.49 156.93"/>
        <polygon points="152.91 152.85 148.76 152.83 148.76 148.71 152.86 148.71 152.91 152.85"/>
        <polygon points="169.34 29.55 157.02 29.64 156.96 17.2 169.27 17.15 169.34 29.55"/>
        <polygon points="29.64 29.55 17.32 29.64 17.26 17.2 29.57 17.15 29.64 29.55"/>
        <polygon points="29.64 169.26 17.32 169.35 17.26 156.92 29.57 156.86 29.64 169.26"/>
      </g>
    </g>
  </g>
</svg>