<?xml version="1.0" encoding="UTF-8"?>
<svg id="Layer_1" data-name="Layer 1" xmlns="http://www.w3.org/2000/svg" viewBox="0 0 693.84 832.7">
  <rect x="329.39" y="390" width="34" height="8"/>
  <path d="M384.39,434c-42-40-76,1-76,1,44,39,76-1,76-1Z"/>
  <path d="M693.39,685s-7-98-107-98-152-27-153-64c-.43-15.89-.67-27.91-.82-36.45,7.55,2.88,15.75,4.45,24.32,4.45,12.84,0,24.84-3.53,35.11-9.68l30.39,74.68c75-3,69-70,69-70l-74.7-30.08c5.54-9.88,8.7-21.28,8.7-33.42,0-11.38-2.78-22.12-7.69-31.56,36.53-1.47,65.69-31.55,65.69-68.44,0-22.46-10.81-42.4-27.51-54.89,22.26-11.31,37.51-34.43,37.51-61.11,0-37.83-30.67-68.5-68.5-68.5-2.84,0-5.64.17-8.39.51,8.11-11.26,12.89-25.07,12.89-40.01,0-37.83-30.67-68.5-68.5-68.5-18.75,0-35.73,7.53-48.1,19.73C404.62,21.02,378.21,0,346.89,0s-56.55,20.09-65.32,47.81c-12.75-12.27-30.09-19.81-49.18-19.81-39.21,0-71,31.79-71,71,0,14.41,4.3,27.82,11.68,39.02-.39-.02-.78-.02-1.18-.02-37.83,0-68.5,30.67-68.5,68.5,0,26.45,14.99,49.39,36.93,60.81-16.94,12.46-27.93,32.54-27.93,55.19,0,33.88,24.59,62.01,56.9,67.52-3.16,7.87-4.9,16.47-4.9,25.48,0,14.32,4.39,27.6,11.9,38.59l-72.9,29.91s-9,74,69,71l29.77-78.26c9.24,4.64,19.68,7.26,30.73,7.26,12.71,0,24.6-3.46,34.8-9.49.77,15.72.7,67.79-32.3,80.49-39,15-97,31-125,32S.39,610,.39,680v85s-6,23,29,34,249,70,630,0c0,0,33-12,34-32s0-82,0-82ZM439.24,583.54c23,13,53,21,53,21,0,0-30,34-69,50-66,28-58-34-58-34,0,0,39-5,74-37ZM412.39,560s-73,61-130,0c8-14,15-45,15-45h2.55c7.26,3.04,28.7,12,49.45,12s40.81-8.95,47.03-12h.97c3,29,15,45,15,45ZM450.7,346.45c-5.46,2.9-11.69,4.55-18.31,4.55-21.54,0-39-17.46-39-39s17.46-39,39-39c10.16,0,19.41,3.88,26.36,10.25,7.77,7.13,12.64,17.37,12.64,28.75,0,14.92-8.38,27.89-20.69,34.45ZM236.33,183.24c6.52-7.19,13.93-13.14,21.76-18.04.01,0,.02,0,.03-.01,5.32-2.07,10.33-4.76,14.93-7.99h.01c35.97-16.33,74.33-15.2,74.33-15.2,0,0,74.73-7.77,111.4,46.48,10.56,15.62,17.96,36.39,19.52,63.96-2.86-2.2-5.89-4.2-9.06-5.98-10.75-6.02-23.15-9.46-36.36-9.46-35.12,0-64.56,24.3-72.43,57h-24.91c-7.5-33.21-37.18-58-72.66-58-12.13,0-23.58,2.9-33.7,8.04-6.55,3.33-12.54,7.59-17.79,12.62-.01-.89-.01-1.77-.01-2.66,0-31.71,10.17-54.45,24.94-70.76ZM301.39,311c0,21.54-17.46,39-39,39-6.16,0-11.98-1.42-17.16-3.96-12.94-6.36-21.84-19.66-21.84-35.04,0-11.46,4.94-21.77,12.81-28.91,6.93-6.27,16.11-10.09,26.19-10.09,21.54,0,39,17.46,39,39ZM233.61,379.02c8.98,3.85,18.88,5.98,29.28,5.98s19.54-1.97,28.25-5.55c21.58-8.84,38.08-27.51,43.93-50.45h25.39c5.51,22.9,21.6,41.68,42.81,50.87,9.08,3.95,19.09,6.13,29.62,6.13,9.09,0,17.79-1.63,25.84-4.6-12.69,33.72-30.53,62.06-50.89,81.47l-3.67,3.37c-17.74,15.76-37.22,24.76-56.78,24.76-16.44,0-32.76-6.13-48.09-17.21-5.17-3.74-10.23-8.04-15.14-12.86l-3.07-3.09c-18.79-19.51-35.27-46.66-47.48-78.82ZM255.39,584c35,32,74,37,74,37,0,0,8,62-58,34-39-16-69-50-69-50,0,0,30-8,53-21ZM130.39,783c-50,0-95-22-95-22v-75c0-37,51-63,61-63s34-3,34-3v163ZM526.39,786s-214,21-360,0v-163s112,120,181,56c0,0,62,71,179-59,1,32,0,166,0,166ZM658.39,761s-45,22-95,22v-163s24,3,34,3,61,26,61,63v75Z"/>
</svg>